<?xml version="1.0" encoding="UTF-8" standalone="no"?><svg xmlns="http://www.w3.org/2000/svg" xmlns:xlink="http://www.w3.org/1999/xlink" contentStyleType="text/css" height="720px" preserveAspectRatio="none" style="width:427px;height:720px;background:#FFFFFF;" version="1.1" viewBox="0 0 427 720" width="427px" zoomAndPan="magnify"><defs/><g><path d="M180,10 L180,36.3516 L263,36.3516 L263,20 L253,10 L180,10 " fill="#FEFFDD" style="stroke:#181818;stroke-width:0.5;"/><path d="M253,10 L253,20 L263,20 L253,10 " fill="#FEFFDD" style="stroke:#181818;stroke-width:0.5;"/><text fill="#000000" font-family="sans-serif" font-size="13" lengthAdjust="spacing" textLength="62" x="186" y="28.4951">fill the pipe</text><ellipse cx="221.5" cy="66.3516" fill="#222222" rx="10" ry="10" style="stroke:#222222;stroke-width:1.0;"/><rect fill="#F1F1F1" height="50.1875" rx="12.5" ry="12.5" style="stroke:#181818;stroke-width:0.5;" width="327" x="58" y="184.3516"/><text fill="#000000" font-family="sans-serif" font-size="12" lengthAdjust="spacing" textLength="215" x="68" y="206.8086">Erstelle Task mit der Suche von Eintrag</text><text fill="#000000" font-family="sans-serif" font-size="12" lengthAdjust="spacing" textLength="307" x="68" y="221.9023">designation[tempI] in Datenbank dbFiles[dbFilePosition]</text><rect fill="#F1F1F1" height="50.1875" rx="12.5" ry="12.5" style="stroke:#181818;stroke-width:0.5;" width="170" x="136.5" y="254.5391"/><text fill="#000000" font-family="sans-serif" font-size="12" lengthAdjust="spacing" textLength="150" x="146.5" y="276.9961">Inkrementiere    runCounter</text><text fill="#000000" font-family="sans-serif" font-size="12" lengthAdjust="spacing" textLength="116" x="146.5" y="292.0898">Dekrementiere tempI</text><polygon fill="#F1F1F1" points="200,324.7266,243,324.7266,255,336.7266,243,348.7266,200,348.7266,188,336.7266,200,324.7266" style="stroke:#181818;stroke-width:0.5;"/><text fill="#000000" font-family="sans-serif" font-size="11" lengthAdjust="spacing" textLength="18" x="225.5" y="360.1455">yes</text><text fill="#000000" font-family="sans-serif" font-size="11" lengthAdjust="spacing" textLength="43" x="200" y="341.2275">tempI &lt; 0</text><text fill="#000000" font-family="sans-serif" font-size="11" lengthAdjust="spacing" textLength="12" x="255" y="334.3096">no</text><rect fill="#555555" height="6" rx="2.5" ry="2.5" style="stroke:#555555;stroke-width:1.0;" width="208" x="117.5" y="428.5977"/><rect fill="#F1F1F1" height="35.0938" rx="12.5" ry="12.5" style="stroke:#181818;stroke-width:0.5;" width="180" x="131.5" y="454.5977"/><text fill="#000000" font-family="sans-serif" font-size="12" lengthAdjust="spacing" textLength="160" x="141.5" y="477.0547">∀ erstellten Tasks ausführen</text><rect fill="#555555" height="6" rx="2.5" ry="2.5" style="stroke:#555555;stroke-width:1.0;" width="208" x="117.5" y="509.6914"/><rect fill="#F1F1F1" height="35.0938" rx="12.5" ry="12.5" style="stroke:#181818;stroke-width:0.5;" width="181" x="131" y="535.6914"/><text fill="#000000" font-family="sans-serif" font-size="12" lengthAdjust="spacing" textLength="161" x="141" y="558.1484">Beenden aller Task abwarten</text><rect fill="#F1F1F1" height="35.0938" rx="12.5" ry="12.5" style="stroke:#181818;stroke-width:0.5;" width="311" x="66" y="590.7852"/><text fill="#000000" font-family="sans-serif" font-size="12" lengthAdjust="spacing" textLength="291" x="76" y="613.2422">Resultate falls vorhanden in die res-Liste aufnehmen</text><polygon fill="#F1F1F1" points="66,140.3516,377,140.3516,389,152.3516,377,164.3516,66,164.3516,54,152.3516,66,140.3516" style="stroke:#181818;stroke-width:0.5;"/><text fill="#000000" font-family="sans-serif" font-size="11" lengthAdjust="spacing" textLength="311" x="66" y="156.8525">foreach (int taskDbIndex in Enumerable.Range(0, dbFiles.Count))</text><polygon fill="#F1F1F1" points="142.5,96.3516,300.5,96.3516,312.5,108.3516,300.5,120.3516,142.5,120.3516,130.5,108.3516,142.5,96.3516" style="stroke:#181818;stroke-width:0.5;"/><text fill="#000000" font-family="sans-serif" font-size="11" lengthAdjust="spacing" textLength="158" x="142.5" y="112.8525">tempI &gt;= 0 &amp;&amp; dbFilePosition &gt;= 0</text><ellipse cx="221.5" cy="699.8789" fill="none" rx="10" ry="10" style="stroke:#222222;stroke-width:1.5;"/><line style="stroke:#222222;stroke-width:2.5;" x1="215.3128" x2="227.6872" y1="693.6917" y2="706.0661"/><line style="stroke:#222222;stroke-width:2.5;" x1="227.6872" x2="215.3128" y1="693.6917" y2="706.0661"/><line style="stroke:#181818;stroke-width:1.0;" x1="221.5" x2="221.5" y1="36.3516" y2="56.3516"/><polygon fill="#181818" points="217.5,46.3516,221.5,56.3516,225.5,46.3516,221.5,50.3516" style="stroke:#181818;stroke-width:1.0;"/><line style="stroke:#181818;stroke-width:1.0;" x1="221.5" x2="221.5" y1="234.5391" y2="254.5391"/><polygon fill="#181818" points="217.5,244.5391,221.5,254.5391,225.5,244.5391,221.5,248.5391" style="stroke:#181818;stroke-width:1.0;"/><line style="stroke:#181818;stroke-width:1.0;" x1="221.5" x2="221.5" y1="348.7266" y2="373.6445"/><line style="stroke:#181818;stroke-width:1.0;" x1="221.5" x2="42" y1="373.6445" y2="373.6445"/><polygon fill="#181818" points="52,369.6445,42,373.6445,52,377.6445,48,373.6445" style="stroke:#181818;stroke-width:1.0;"/><line style="stroke:#181818;stroke-width:1.0;" x1="255" x2="267" y1="336.7266" y2="336.7266"/><polygon fill="#181818" points="263,360.6445,267,370.6445,271,360.6445,267,364.6445" style="stroke:#181818;stroke-width:1.0;"/><line style="stroke:#181818;stroke-width:1.0;" x1="267" x2="267" y1="336.7266" y2="404.5625"/><line style="stroke:#181818;stroke-width:1.0;" x1="267" x2="221.5" y1="404.5625" y2="404.5625"/><line style="stroke:#181818;stroke-width:1.0;" x1="221.5" x2="221.5" y1="404.5625" y2="428.5977"/><polygon fill="#181818" points="217.5,418.5977,221.5,428.5977,225.5,418.5977,221.5,422.5977" style="stroke:#181818;stroke-width:1.0;"/><line style="stroke:#181818;stroke-width:1.0;" x1="221.5" x2="221.5" y1="304.7266" y2="324.7266"/><polygon fill="#181818" points="217.5,314.7266,221.5,324.7266,225.5,314.7266,221.5,318.7266" style="stroke:#181818;stroke-width:1.0;"/><line style="stroke:#181818;stroke-width:1.0;" x1="221.5" x2="221.5" y1="434.5977" y2="454.5977"/><polygon fill="#181818" points="217.5,444.5977,221.5,454.5977,225.5,444.5977,221.5,448.5977" style="stroke:#181818;stroke-width:1.0;"/><line style="stroke:#181818;stroke-width:1.0;" x1="221.5" x2="221.5" y1="489.6914" y2="509.6914"/><polygon fill="#181818" points="217.5,499.6914,221.5,509.6914,225.5,499.6914,221.5,503.6914" style="stroke:#181818;stroke-width:1.0;"/><line style="stroke:#181818;stroke-width:1.0;" x1="221.5" x2="221.5" y1="515.6914" y2="535.6914"/><polygon fill="#181818" points="217.5,525.6914,221.5,535.6914,225.5,525.6914,221.5,529.6914" style="stroke:#181818;stroke-width:1.0;"/><line style="stroke:#181818;stroke-width:1.0;" x1="221.5" x2="221.5" y1="570.7852" y2="590.7852"/><polygon fill="#181818" points="217.5,580.7852,221.5,590.7852,225.5,580.7852,221.5,584.7852" style="stroke:#181818;stroke-width:1.0;"/><line style="stroke:#181818;stroke-width:1.0;" x1="221.5" x2="221.5" y1="164.3516" y2="184.3516"/><polygon fill="#181818" points="217.5,174.3516,221.5,184.3516,225.5,174.3516,221.5,178.3516" style="stroke:#181818;stroke-width:1.0;"/><line style="stroke:#181818;stroke-width:1.0;" x1="221.5" x2="221.5" y1="625.8789" y2="635.8789"/><line style="stroke:#181818;stroke-width:1.0;" x1="221.5" x2="401" y1="635.8789" y2="635.8789"/><polygon fill="#181818" points="397,408.5977,401,398.5977,405,408.5977,401,404.5977" style="stroke:#181818;stroke-width:1.0;"/><line style="stroke:#181818;stroke-width:1.0;" x1="401" x2="401" y1="152.3516" y2="635.8789"/><line style="stroke:#181818;stroke-width:1.0;" x1="401" x2="389" y1="152.3516" y2="152.3516"/><polygon fill="#181818" points="399,148.3516,389,152.3516,399,156.3516,395,152.3516" style="stroke:#181818;stroke-width:1.0;"/><line style="stroke:#181818;stroke-width:1.0;" x1="54" x2="42" y1="152.3516" y2="152.3516"/><polygon fill="#181818" points="38,394.5977,42,404.5977,46,394.5977,42,398.5977" style="stroke:#181818;stroke-width:1.0;"/><line style="stroke:#181818;stroke-width:1.0;" x1="42" x2="42" y1="152.3516" y2="647.8789"/><line style="stroke:#181818;stroke-width:1.0;" x1="42" x2="413" y1="647.8789" y2="647.8789"/><line style="stroke:#181818;stroke-width:1.0;" x1="413" x2="413" y1="108.3516" y2="647.8789"/><line style="stroke:#181818;stroke-width:1.0;" x1="413" x2="312.5" y1="108.3516" y2="108.3516"/><polygon fill="#181818" points="322.5,104.3516,312.5,108.3516,322.5,112.3516,318.5,108.3516" style="stroke:#181818;stroke-width:1.0;"/><line style="stroke:#181818;stroke-width:1.0;" x1="221.5" x2="221.5" y1="120.3516" y2="140.3516"/><polygon fill="#181818" points="217.5,130.3516,221.5,140.3516,225.5,130.3516,221.5,134.3516" style="stroke:#181818;stroke-width:1.0;"/><line style="stroke:#181818;stroke-width:1.0;" x1="130.5" x2="24" y1="108.3516" y2="108.3516"/><polygon fill="#181818" points="20,382.5977,24,392.5977,28,382.5977,24,386.5977" style="stroke:#181818;stroke-width:1.0;"/><line style="stroke:#181818;stroke-width:1.0;" x1="24" x2="24" y1="108.3516" y2="669.8789"/><line style="stroke:#181818;stroke-width:1.0;" x1="24" x2="221.5" y1="669.8789" y2="669.8789"/><line style="stroke:#181818;stroke-width:1.0;" x1="221.5" x2="221.5" y1="669.8789" y2="689.8789"/><polygon fill="#181818" points="217.5,679.8789,221.5,689.8789,225.5,679.8789,221.5,683.8789" style="stroke:#181818;stroke-width:1.0;"/><line style="stroke:#181818;stroke-width:1.0;" x1="221.5" x2="221.5" y1="76.3516" y2="96.3516"/><polygon fill="#181818" points="217.5,86.3516,221.5,96.3516,225.5,86.3516,221.5,90.3516" style="stroke:#181818;stroke-width:1.0;"/><!--MD5=[60b4954ef9268c21981e605ffcc36b5e]
@startuml "Case A"

    note: fill the pipe
    start
        while (tempI >= 0 && dbFilePosition >= 0)
            while (foreach (int taskDbIndex in Enumerable.Range(0, dbFiles.Count)))
                :Erstelle Task mit der Suche von Eintrag\ndesignation[tempI] in Datenbank dbFiles[dbFilePosition];
                :Inkrementiere    runCounter\nDekrementiere tempI;
                if (tempI < 0) then (yes)
                    break;
                else (no)
                endif
            fork
                :&#8704; erstellten Tasks ausführen;
            end fork
            :Beenden aller Task abwarten;
            :Resultate falls vorhanden in die res-Liste aufnehmen;
            endwhile
        endwhile
    end

@enduml

PlantUML version 1.2022.7(Mon Aug 22 19:01:30 CEST 2022)
(GPL source distribution)
Java Runtime: Java(TM) SE Runtime Environment
JVM: Java HotSpot(TM) 64-Bit Server VM
Default Encoding: UTF-8
Language: de
Country: DE
--></g></svg>