<?xml version="1.0" encoding="UTF-8" standalone="no"?><svg xmlns="http://www.w3.org/2000/svg" xmlns:xlink="http://www.w3.org/1999/xlink" contentStyleType="text/css" height="810px" preserveAspectRatio="none" style="width:480px;height:810px;background:#FFFFFF;" version="1.1" viewBox="0 0 480 810" width="480px" zoomAndPan="magnify"><defs/><g><path d="M194.5,10 L194.5,36.3516 L283.5,36.3516 L283.5,20 L273.5,10 L194.5,10 " fill="#FEFFDD" style="stroke:#181818;stroke-width:0.5;"/><path d="M273.5,10 L273.5,20 L283.5,20 L273.5,10 " fill="#FEFFDD" style="stroke:#181818;stroke-width:0.5;"/><text fill="#000000" font-family="sans-serif" font-size="13" lengthAdjust="spacing" textLength="68" x="200.5" y="28.4951">run the pipe</text><ellipse cx="239" cy="66.3516" fill="#222222" rx="10" ry="10" style="stroke:#222222;stroke-width:1.0;"/><polygon fill="#F1F1F1" points="154.5,96.3516,323.5,96.3516,335.5,108.3516,323.5,120.3516,154.5,120.3516,142.5,108.3516,154.5,96.3516" style="stroke:#181818;stroke-width:0.5;"/><text fill="#000000" font-family="sans-serif" font-size="11" lengthAdjust="spacing" textLength="169" x="154.5" y="112.8525">dbFiles.Count &gt; designations.Count</text><text fill="#000000" font-family="sans-serif" font-size="11" lengthAdjust="spacing" textLength="18" x="124.5" y="105.9346">yes</text><text fill="#000000" font-family="sans-serif" font-size="11" lengthAdjust="spacing" textLength="12" x="335.5" y="105.9346">no</text><rect fill="#F1F1F1" height="35.0938" rx="12.5" ry="12.5" style="stroke:#181818;stroke-width:0.5;" width="223" x="13.75" y="130.3516"/><text fill="#000000" font-family="sans-serif" font-size="12" lengthAdjust="spacing" textLength="203" x="23.75" y="152.8086">taskAmount = designations.Count - 1</text><rect fill="#F1F1F1" height="35.0938" rx="12.5" ry="12.5" style="stroke:#181818;stroke-width:0.5;" width="192" x="256.75" y="130.3516"/><text fill="#000000" font-family="sans-serif" font-size="12" lengthAdjust="spacing" textLength="172" x="266.75" y="152.8086">taskAmount = dbFiles.Count - 1</text><polygon fill="#F1F1F1" points="239,171.4453,251,183.4453,239,195.4453,227,183.4453,239,171.4453" style="stroke:#181818;stroke-width:0.5;"/><rect fill="#F1F1F1" height="50.1875" rx="12.5" ry="12.5" style="stroke:#181818;stroke-width:0.5;" width="406" x="36" y="259.4453"/><text fill="#000000" font-family="sans-serif" font-size="12" lengthAdjust="spacing" textLength="383" x="46" y="281.9023">Erstelle Task mit der Suche von Eintrag designation[i - taskDbIndex] in</text><text fill="#000000" font-family="sans-serif" font-size="12" lengthAdjust="spacing" textLength="351" x="46" y="296.9961">Datenbank dbFiles[dbFilePosition - taskDbIndex - fullPipeCount]</text><rect fill="#F1F1F1" height="35.0938" rx="12.5" ry="12.5" style="stroke:#181818;stroke-width:0.5;" width="161" x="158.5" y="337.5859"/><text fill="#000000" font-family="sans-serif" font-size="12" lengthAdjust="spacing" textLength="141" x="168.5" y="360.043">Inkrementiere runCounter</text><polygon fill="#F1F1F1" points="69.5,215.4453,408.5,215.4453,420.5,227.4453,408.5,239.4453,69.5,239.4453,57.5,227.4453,69.5,215.4453" style="stroke:#181818;stroke-width:0.5;"/><text fill="#000000" font-family="sans-serif" font-size="11" lengthAdjust="spacing" textLength="339" x="69.5" y="231.9463">for (int taskDbIndex = 0; taskDbIndex &lt; taskAmount; taskDbIndex += 1)</text><rect fill="#555555" height="6" rx="2.5" ry="2.5" style="stroke:#555555;stroke-width:1.0;" width="208" x="135" y="414.6797"/><rect fill="#F1F1F1" height="35.0938" rx="12.5" ry="12.5" style="stroke:#181818;stroke-width:0.5;" width="180" x="149" y="440.6797"/><text fill="#000000" font-family="sans-serif" font-size="12" lengthAdjust="spacing" textLength="160" x="159" y="463.1367">∀ erstellten Tasks ausführen</text><rect fill="#555555" height="6" rx="2.5" ry="2.5" style="stroke:#555555;stroke-width:1.0;" width="208" x="135" y="495.7734"/><rect fill="#F1F1F1" height="35.0938" rx="12.5" ry="12.5" style="stroke:#181818;stroke-width:0.5;" width="181" x="148.5" y="521.7734"/><text fill="#000000" font-family="sans-serif" font-size="12" lengthAdjust="spacing" textLength="161" x="158.5" y="544.2305">Beenden aller Task abwarten</text><rect fill="#F1F1F1" height="35.0938" rx="12.5" ry="12.5" style="stroke:#181818;stroke-width:0.5;" width="311" x="83.5" y="576.8672"/><text fill="#000000" font-family="sans-serif" font-size="12" lengthAdjust="spacing" textLength="291" x="93.5" y="599.3242">Resultate falls vorhanden in die res-Liste aufnehmen</text><rect fill="#F1F1F1" height="35.0938" rx="12.5" ry="12.5" style="stroke:#181818;stroke-width:0.5;" width="173" x="152.5" y="680.8789"/><text fill="#000000" font-family="sans-serif" font-size="12" lengthAdjust="spacing" textLength="153" x="162.5" y="703.3359">Inkrementiere fullPipeCount</text><polygon fill="#F1F1F1" points="154.5,631.9609,323.5,631.9609,335.5,643.9609,323.5,655.9609,154.5,655.9609,142.5,643.9609,154.5,631.9609" style="stroke:#181818;stroke-width:0.5;"/><text fill="#000000" font-family="sans-serif" font-size="11" lengthAdjust="spacing" textLength="18" x="243" y="667.3799">yes</text><text fill="#000000" font-family="sans-serif" font-size="11" lengthAdjust="spacing" textLength="169" x="154.5" y="648.4619">dbFiles.Count &gt; designations.Count</text><text fill="#000000" font-family="sans-serif" font-size="11" lengthAdjust="spacing" textLength="12" x="335.5" y="641.5439">no</text><polygon fill="#F1F1F1" points="239,735.9727,251,747.9727,239,759.9727,227,747.9727,239,735.9727" style="stroke:#181818;stroke-width:0.5;"/><ellipse cx="239" cy="789.9727" fill="none" rx="10" ry="10" style="stroke:#222222;stroke-width:1.5;"/><line style="stroke:#222222;stroke-width:2.5;" x1="232.8128" x2="245.1872" y1="783.7855" y2="796.1598"/><line style="stroke:#222222;stroke-width:2.5;" x1="245.1872" x2="232.8128" y1="783.7855" y2="796.1598"/><line style="stroke:#181818;stroke-width:1.0;" x1="239" x2="239" y1="36.3516" y2="56.3516"/><polygon fill="#181818" points="235,46.3516,239,56.3516,243,46.3516,239,50.3516" style="stroke:#181818;stroke-width:1.0;"/><line style="stroke:#181818;stroke-width:1.0;" x1="142.5" x2="125.25" y1="108.3516" y2="108.3516"/><line style="stroke:#181818;stroke-width:1.0;" x1="125.25" x2="125.25" y1="108.3516" y2="130.3516"/><polygon fill="#181818" points="121.25,120.3516,125.25,130.3516,129.25,120.3516,125.25,124.3516" style="stroke:#181818;stroke-width:1.0;"/><line style="stroke:#181818;stroke-width:1.0;" x1="335.5" x2="352.75" y1="108.3516" y2="108.3516"/><line style="stroke:#181818;stroke-width:1.0;" x1="352.75" x2="352.75" y1="108.3516" y2="130.3516"/><polygon fill="#181818" points="348.75,120.3516,352.75,130.3516,356.75,120.3516,352.75,124.3516" style="stroke:#181818;stroke-width:1.0;"/><line style="stroke:#181818;stroke-width:1.0;" x1="125.25" x2="125.25" y1="165.4453" y2="183.4453"/><line style="stroke:#181818;stroke-width:1.0;" x1="125.25" x2="227" y1="183.4453" y2="183.4453"/><polygon fill="#181818" points="217,179.4453,227,183.4453,217,187.4453,221,183.4453" style="stroke:#181818;stroke-width:1.0;"/><line style="stroke:#181818;stroke-width:1.0;" x1="352.75" x2="352.75" y1="165.4453" y2="183.4453"/><line style="stroke:#181818;stroke-width:1.0;" x1="352.75" x2="251" y1="183.4453" y2="183.4453"/><polygon fill="#181818" points="261,179.4453,251,183.4453,261,187.4453,257,183.4453" style="stroke:#181818;stroke-width:1.0;"/><line style="stroke:#181818;stroke-width:1.0;" x1="239" x2="239" y1="76.3516" y2="96.3516"/><polygon fill="#181818" points="235,86.3516,239,96.3516,243,86.3516,239,90.3516" style="stroke:#181818;stroke-width:1.0;"/><line style="stroke:#181818;stroke-width:1.0;" x1="239" x2="239" y1="309.6328" y2="337.5859"/><polygon fill="#181818" points="235,327.5859,239,337.5859,243,327.5859,239,331.5859" style="stroke:#181818;stroke-width:1.0;"/><line style="stroke:#181818;stroke-width:1.0;" x1="239" x2="239" y1="239.4453" y2="259.4453"/><polygon fill="#181818" points="235,249.4453,239,259.4453,243,249.4453,239,253.4453" style="stroke:#181818;stroke-width:1.0;"/><line style="stroke:#181818;stroke-width:1.0;" x1="239" x2="239" y1="372.6797" y2="382.6797"/><line style="stroke:#181818;stroke-width:1.0;" x1="239" x2="454" y1="382.6797" y2="382.6797"/><polygon fill="#181818" points="450,317.5859,454,307.5859,458,317.5859,454,313.5859" style="stroke:#181818;stroke-width:1.0;"/><line style="stroke:#181818;stroke-width:1.0;" x1="454" x2="454" y1="227.4453" y2="382.6797"/><line style="stroke:#181818;stroke-width:1.0;" x1="454" x2="420.5" y1="227.4453" y2="227.4453"/><polygon fill="#181818" points="430.5,223.4453,420.5,227.4453,430.5,231.4453,426.5,227.4453" style="stroke:#181818;stroke-width:1.0;"/><line style="stroke:#181818;stroke-width:1.0;" x1="57.5" x2="24" y1="227.4453" y2="227.4453"/><polygon fill="#181818" points="20,303.5859,24,313.5859,28,303.5859,24,307.5859" style="stroke:#181818;stroke-width:1.0;"/><line style="stroke:#181818;stroke-width:1.0;" x1="24" x2="24" y1="227.4453" y2="394.6797"/><line style="stroke:#181818;stroke-width:1.0;" x1="24" x2="239" y1="394.6797" y2="394.6797"/><line style="stroke:#181818;stroke-width:1.0;" x1="239" x2="239" y1="394.6797" y2="414.6797"/><polygon fill="#181818" points="235,404.6797,239,414.6797,243,404.6797,239,408.6797" style="stroke:#181818;stroke-width:1.0;"/><line style="stroke:#181818;stroke-width:1.0;" x1="239" x2="239" y1="195.4453" y2="215.4453"/><polygon fill="#181818" points="235,205.4453,239,215.4453,243,205.4453,239,209.4453" style="stroke:#181818;stroke-width:1.0;"/><line style="stroke:#181818;stroke-width:1.0;" x1="239" x2="239" y1="420.6797" y2="440.6797"/><polygon fill="#181818" points="235,430.6797,239,440.6797,243,430.6797,239,434.6797" style="stroke:#181818;stroke-width:1.0;"/><line style="stroke:#181818;stroke-width:1.0;" x1="239" x2="239" y1="475.7734" y2="495.7734"/><polygon fill="#181818" points="235,485.7734,239,495.7734,243,485.7734,239,489.7734" style="stroke:#181818;stroke-width:1.0;"/><line style="stroke:#181818;stroke-width:1.0;" x1="239" x2="239" y1="501.7734" y2="521.7734"/><polygon fill="#181818" points="235,511.7734,239,521.7734,243,511.7734,239,515.7734" style="stroke:#181818;stroke-width:1.0;"/><line style="stroke:#181818;stroke-width:1.0;" x1="239" x2="239" y1="556.8672" y2="576.8672"/><polygon fill="#181818" points="235,566.8672,239,576.8672,243,566.8672,239,570.8672" style="stroke:#181818;stroke-width:1.0;"/><line style="stroke:#181818;stroke-width:1.0;" x1="239" x2="239" y1="655.9609" y2="680.8789"/><polygon fill="#181818" points="235,670.8789,239,680.8789,243,670.8789,239,674.8789" style="stroke:#181818;stroke-width:1.0;"/><line style="stroke:#181818;stroke-width:1.0;" x1="335.5" x2="347.5" y1="643.9609" y2="643.9609"/><polygon fill="#181818" points="343.5,688.4258,347.5,698.4258,351.5,688.4258,347.5,692.4258" style="stroke:#181818;stroke-width:1.0;"/><line style="stroke:#181818;stroke-width:1.0;" x1="347.5" x2="347.5" y1="643.9609" y2="747.9727"/><line style="stroke:#181818;stroke-width:1.0;" x1="347.5" x2="251" y1="747.9727" y2="747.9727"/><polygon fill="#181818" points="261,743.9727,251,747.9727,261,751.9727,257,747.9727" style="stroke:#181818;stroke-width:1.0;"/><line style="stroke:#181818;stroke-width:1.0;" x1="239" x2="239" y1="715.9727" y2="735.9727"/><polygon fill="#181818" points="235,725.9727,239,735.9727,243,725.9727,239,729.9727" style="stroke:#181818;stroke-width:1.0;"/><line style="stroke:#181818;stroke-width:1.0;" x1="239" x2="239" y1="611.9609" y2="631.9609"/><polygon fill="#181818" points="235,621.9609,239,631.9609,243,621.9609,239,625.9609" style="stroke:#181818;stroke-width:1.0;"/><line style="stroke:#181818;stroke-width:1.0;" x1="239" x2="239" y1="759.9727" y2="779.9727"/><polygon fill="#181818" points="235,769.9727,239,779.9727,243,769.9727,239,773.9727" style="stroke:#181818;stroke-width:1.0;"/><!--MD5=[e6f6e28dc173e6aefa7491750fbe3e87]
@startuml "Fall B"

    note: run the pipe
    start
        if (dbFiles.Count > designations.Count) then (yes)
            :taskAmount = designations.Count - 1;
        else (no)
            :taskAmount = dbFiles.Count - 1;
        endif
        while (for (int taskDbIndex = 0; taskDbIndex < taskAmount; taskDbIndex += 1))
            :Erstelle Task mit der Suche von Eintrag designation[i - taskDbIndex] in \nDatenbank dbFiles[dbFilePosition - taskDbIndex - fullPipeCount];
            :Inkrementiere runCounter;
        endwhile
        fork
            :&#8704; erstellten Tasks ausführen;
        end fork
        :Beenden aller Task abwarten;
        :Resultate falls vorhanden in die res-Liste aufnehmen;
        if (dbFiles.Count > designations.Count) then (yes)
            :Inkrementiere fullPipeCount;
        else (no)
        endif
    end

@enduml

PlantUML version 1.2022.7(Mon Aug 22 19:01:30 CEST 2022)
(GPL source distribution)
Java Runtime: Java(TM) SE Runtime Environment
JVM: Java HotSpot(TM) 64-Bit Server VM
Default Encoding: UTF-8
Language: de
Country: DE
--></g></svg>