<?xml version="1.0" encoding="UTF-8" standalone="no"?><svg xmlns="http://www.w3.org/2000/svg" xmlns:xlink="http://www.w3.org/1999/xlink" contentStyleType="text/css" height="1093px" preserveAspectRatio="none" style="width:612px;height:1093px;background:#FFFFFF;" version="1.1" viewBox="0 0 612 1093" width="612px" zoomAndPan="magnify"><defs/><g><path d="M249,10 L249,36.3516 L348,36.3516 L348,20 L338,10 L249,10 " fill="#FEFFDD" style="stroke:#181818;stroke-width:0.5;"/><path d="M338,10 L338,20 L348,20 L338,10 " fill="#FEFFDD" style="stroke:#181818;stroke-width:0.5;"/><text fill="#000000" font-family="sans-serif" font-size="13" lengthAdjust="spacing" textLength="78" x="255" y="28.4951">drain the pipe</text><ellipse cx="298.5" cy="66.3516" fill="#222222" rx="10" ry="10" style="stroke:#222222;stroke-width:1.0;"/><rect fill="#F1F1F1" height="35.0938" rx="12.5" ry="12.5" style="stroke:#181818;stroke-width:0.5;" width="164" x="216.5" y="96.3516"/><text fill="#000000" font-family="sans-serif" font-size="12" lengthAdjust="spacing" textLength="144" x="226.5" y="118.8086">initialize finishedCount = 0</text><polygon fill="#F1F1F1" points="214,195.4453,383,195.4453,395,207.4453,383,219.4453,214,219.4453,202,207.4453,214,195.4453" style="stroke:#181818;stroke-width:0.5;"/><text fill="#000000" font-family="sans-serif" font-size="11" lengthAdjust="spacing" textLength="169" x="214" y="211.9463">dbFiles.Count &gt; designations.Count</text><text fill="#000000" font-family="sans-serif" font-size="11" lengthAdjust="spacing" textLength="18" x="184" y="205.0283">yes</text><text fill="#000000" font-family="sans-serif" font-size="11" lengthAdjust="spacing" textLength="12" x="395" y="205.0283">no</text><rect fill="#F1F1F1" height="35.0938" rx="12.5" ry="12.5" style="stroke:#181818;stroke-width:0.5;" width="128" x="115.25" y="229.4453"/><text fill="#000000" font-family="sans-serif" font-size="12" lengthAdjust="spacing" textLength="108" x="125.25" y="251.9023">rest = i - drainCount</text><rect fill="#F1F1F1" height="35.0938" rx="12.5" ry="12.5" style="stroke:#181818;stroke-width:0.5;" width="309" x="263.25" y="229.4453"/><text fill="#000000" font-family="sans-serif" font-size="12" lengthAdjust="spacing" textLength="289" x="273.25" y="251.9023">rest = dbFiles.Count - 1 - drainCount + finishedCount</text><polygon fill="#F1F1F1" points="298.5,270.5391,310.5,282.5391,298.5,294.5391,286.5,282.5391,298.5,270.5391" style="stroke:#181818;stroke-width:0.5;"/><polygon fill="#F1F1F1" points="275.5,314.5391,321.5,314.5391,333.5,326.5391,321.5,338.5391,275.5,338.5391,263.5,326.5391,275.5,314.5391" style="stroke:#181818;stroke-width:0.5;"/><text fill="#000000" font-family="sans-serif" font-size="11" lengthAdjust="spacing" textLength="18" x="302.5" y="349.958">yes</text><text fill="#000000" font-family="sans-serif" font-size="11" lengthAdjust="spacing" textLength="46" x="275.5" y="331.04">rest &lt; 0 ?</text><text fill="#000000" font-family="sans-serif" font-size="11" lengthAdjust="spacing" textLength="12" x="333.5" y="324.1221">no</text><rect fill="#F1F1F1" height="50.1875" rx="12.5" ry="12.5" style="stroke:#181818;stroke-width:0.5;" width="477" x="60" y="453.457"/><text fill="#000000" font-family="sans-serif" font-size="12" lengthAdjust="spacing" textLength="454" x="70" y="475.9141">Erstelle Task mit der Suche von Eintrag designation[i - taskDbIndex - drainCount] in</text><text fill="#000000" font-family="sans-serif" font-size="12" lengthAdjust="spacing" textLength="428" x="70" y="491.0078">Datenbank dbFiles[dbFilePosition - taskDbIndex - drainCount + finishedCount]</text><rect fill="#F1F1F1" height="35.0938" rx="12.5" ry="12.5" style="stroke:#181818;stroke-width:0.5;" width="161" x="218" y="531.5977"/><text fill="#000000" font-family="sans-serif" font-size="12" lengthAdjust="spacing" textLength="141" x="228" y="554.0547">Inkrementiere runCounter</text><polygon fill="#F1F1F1" points="148,409.457,449,409.457,461,421.457,449,433.457,148,433.457,136,421.457,148,409.457" style="stroke:#181818;stroke-width:0.5;"/><text fill="#000000" font-family="sans-serif" font-size="11" lengthAdjust="spacing" textLength="301" x="148" y="425.958">for (int taskDbIndex = 0; taskDbIndex &lt; rest; taskDbIndex += 1)</text><rect fill="#555555" height="6" rx="2.5" ry="2.5" style="stroke:#555555;stroke-width:1.0;" width="208" x="194.5" y="620.1445"/><rect fill="#F1F1F1" height="35.0938" rx="12.5" ry="12.5" style="stroke:#181818;stroke-width:0.5;" width="180" x="208.5" y="646.1445"/><text fill="#000000" font-family="sans-serif" font-size="12" lengthAdjust="spacing" textLength="160" x="218.5" y="668.6016">∀ erstellten Tasks ausführen</text><rect fill="#555555" height="6" rx="2.5" ry="2.5" style="stroke:#555555;stroke-width:1.0;" width="208" x="194.5" y="701.2383"/><rect fill="#F1F1F1" height="35.0938" rx="12.5" ry="12.5" style="stroke:#181818;stroke-width:0.5;" width="181" x="208" y="727.2383"/><text fill="#000000" font-family="sans-serif" font-size="12" lengthAdjust="spacing" textLength="161" x="218" y="749.6953">Beenden aller Task abwarten</text><rect fill="#F1F1F1" height="35.0938" rx="12.5" ry="12.5" style="stroke:#181818;stroke-width:0.5;" width="311" x="143" y="782.332"/><text fill="#000000" font-family="sans-serif" font-size="12" lengthAdjust="spacing" textLength="291" x="153" y="804.7891">Resultate falls vorhanden in die res-Liste aufnehmen</text><rect fill="#F1F1F1" height="35.0938" rx="12.5" ry="12.5" style="stroke:#181818;stroke-width:0.5;" width="160" x="218.5" y="837.4258"/><text fill="#000000" font-family="sans-serif" font-size="12" lengthAdjust="spacing" textLength="140" x="228.5" y="859.8828">Inkrementiere drainCount</text><rect fill="#F1F1F1" height="35.0938" rx="12.5" ry="12.5" style="stroke:#181818;stroke-width:0.5;" width="176" x="210.5" y="941.4375"/><text fill="#000000" font-family="sans-serif" font-size="12" lengthAdjust="spacing" textLength="156" x="220.5" y="963.8945">Inkrementiere finishedCount</text><polygon fill="#F1F1F1" points="76,892.5195,521,892.5195,533,904.5195,521,916.5195,76,916.5195,64,904.5195,76,892.5195" style="stroke:#181818;stroke-width:0.5;"/><text fill="#000000" font-family="sans-serif" font-size="11" lengthAdjust="spacing" textLength="18" x="302.5" y="927.9385">yes</text><text fill="#000000" font-family="sans-serif" font-size="11" lengthAdjust="spacing" textLength="445" x="76" y="909.0205">dbFiles.Count &lt; designations.Count &amp;&amp; (dbFiles.Count + drainCount &lt;= designations.Count) ?</text><text fill="#000000" font-family="sans-serif" font-size="11" lengthAdjust="spacing" textLength="12" x="533" y="902.1025">no</text><polygon fill="#F1F1F1" points="298.5,996.5313,310.5,1008.5313,298.5,1020.5313,286.5,1008.5313,298.5,996.5313" style="stroke:#181818;stroke-width:0.5;"/><polygon fill="#F1F1F1" points="189.5,151.4453,407.5,151.4453,419.5,163.4453,407.5,175.4453,189.5,175.4453,177.5,163.4453,189.5,151.4453" style="stroke:#181818;stroke-width:0.5;"/><text fill="#000000" font-family="sans-serif" font-size="11" lengthAdjust="spacing" textLength="218" x="189.5" y="167.9463">for (int j = fillPipeCount; j != (-1 * fillPipeCount);</text><ellipse cx="298.5" cy="1072.5313" fill="none" rx="10" ry="10" style="stroke:#222222;stroke-width:1.5;"/><line style="stroke:#222222;stroke-width:2.5;" x1="292.3128" x2="304.6872" y1="1066.3441" y2="1078.7184"/><line style="stroke:#222222;stroke-width:2.5;" x1="304.6872" x2="292.3128" y1="1066.3441" y2="1078.7184"/><line style="stroke:#181818;stroke-width:1.0;" x1="298.5" x2="298.5" y1="36.3516" y2="56.3516"/><polygon fill="#181818" points="294.5,46.3516,298.5,56.3516,302.5,46.3516,298.5,50.3516" style="stroke:#181818;stroke-width:1.0;"/><line style="stroke:#181818;stroke-width:1.0;" x1="298.5" x2="298.5" y1="76.3516" y2="96.3516"/><polygon fill="#181818" points="294.5,86.3516,298.5,96.3516,302.5,86.3516,298.5,90.3516" style="stroke:#181818;stroke-width:1.0;"/><line style="stroke:#181818;stroke-width:1.0;" x1="202" x2="179.25" y1="207.4453" y2="207.4453"/><line style="stroke:#181818;stroke-width:1.0;" x1="179.25" x2="179.25" y1="207.4453" y2="229.4453"/><polygon fill="#181818" points="175.25,219.4453,179.25,229.4453,183.25,219.4453,179.25,223.4453" style="stroke:#181818;stroke-width:1.0;"/><line style="stroke:#181818;stroke-width:1.0;" x1="395" x2="417.75" y1="207.4453" y2="207.4453"/><line style="stroke:#181818;stroke-width:1.0;" x1="417.75" x2="417.75" y1="207.4453" y2="229.4453"/><polygon fill="#181818" points="413.75,219.4453,417.75,229.4453,421.75,219.4453,417.75,223.4453" style="stroke:#181818;stroke-width:1.0;"/><line style="stroke:#181818;stroke-width:1.0;" x1="179.25" x2="179.25" y1="264.5391" y2="282.5391"/><line style="stroke:#181818;stroke-width:1.0;" x1="179.25" x2="286.5" y1="282.5391" y2="282.5391"/><polygon fill="#181818" points="276.5,278.5391,286.5,282.5391,276.5,286.5391,280.5,282.5391" style="stroke:#181818;stroke-width:1.0;"/><line style="stroke:#181818;stroke-width:1.0;" x1="417.75" x2="417.75" y1="264.5391" y2="282.5391"/><line style="stroke:#181818;stroke-width:1.0;" x1="417.75" x2="310.5" y1="282.5391" y2="282.5391"/><polygon fill="#181818" points="320.5,278.5391,310.5,282.5391,320.5,286.5391,316.5,282.5391" style="stroke:#181818;stroke-width:1.0;"/><line style="stroke:#181818;stroke-width:1.0;" x1="298.5" x2="298.5" y1="338.5391" y2="363.457"/><line style="stroke:#181818;stroke-width:1.0;" x1="298.5" x2="24" y1="363.457" y2="363.457"/><polygon fill="#181818" points="34,359.457,24,363.457,34,367.457,30,363.457" style="stroke:#181818;stroke-width:1.0;"/><line style="stroke:#181818;stroke-width:1.0;" x1="333.5" x2="345.5" y1="326.5391" y2="326.5391"/><polygon fill="#181818" points="341.5,350.457,345.5,360.457,349.5,350.457,345.5,354.457" style="stroke:#181818;stroke-width:1.0;"/><line style="stroke:#181818;stroke-width:1.0;" x1="345.5" x2="345.5" y1="326.5391" y2="389.457"/><line style="stroke:#181818;stroke-width:1.0;" x1="345.5" x2="298.5" y1="389.457" y2="389.457"/><line style="stroke:#181818;stroke-width:1.0;" x1="298.5" x2="298.5" y1="389.457" y2="409.457"/><polygon fill="#181818" points="294.5,399.457,298.5,409.457,302.5,399.457,298.5,403.457" style="stroke:#181818;stroke-width:1.0;"/><line style="stroke:#181818;stroke-width:1.0;" x1="298.5" x2="298.5" y1="294.5391" y2="314.5391"/><polygon fill="#181818" points="294.5,304.5391,298.5,314.5391,302.5,304.5391,298.5,308.5391" style="stroke:#181818;stroke-width:1.0;"/><line style="stroke:#181818;stroke-width:1.0;" x1="298.5" x2="298.5" y1="503.6445" y2="531.5977"/><polygon fill="#181818" points="294.5,521.5977,298.5,531.5977,302.5,521.5977,298.5,525.5977" style="stroke:#181818;stroke-width:1.0;"/><line style="stroke:#181818;stroke-width:1.0;" x1="298.5" x2="298.5" y1="433.457" y2="453.457"/><polygon fill="#181818" points="294.5,443.457,298.5,453.457,302.5,443.457,298.5,447.457" style="stroke:#181818;stroke-width:1.0;"/><line style="stroke:#181818;stroke-width:1.0;" x1="298.5" x2="298.5" y1="566.6914" y2="576.6914"/><line style="stroke:#181818;stroke-width:1.0;" x1="298.5" x2="549" y1="576.6914" y2="576.6914"/><polygon fill="#181818" points="545,511.5977,549,501.5977,553,511.5977,549,507.5977" style="stroke:#181818;stroke-width:1.0;"/><line style="stroke:#181818;stroke-width:1.0;" x1="549" x2="549" y1="421.457" y2="576.6914"/><line style="stroke:#181818;stroke-width:1.0;" x1="549" x2="461" y1="421.457" y2="421.457"/><polygon fill="#181818" points="471,417.457,461,421.457,471,425.457,467,421.457" style="stroke:#181818;stroke-width:1.0;"/><line style="stroke:#181818;stroke-width:1.0;" x1="136" x2="48" y1="421.457" y2="421.457"/><polygon fill="#181818" points="44,497.5977,48,507.5977,52,497.5977,48,501.5977" style="stroke:#181818;stroke-width:1.0;"/><line style="stroke:#181818;stroke-width:1.0;" x1="48" x2="48" y1="421.457" y2="588.6914"/><line style="stroke:#181818;stroke-width:1.0;" x1="48" x2="298.5" y1="588.6914" y2="588.6914"/><line style="stroke:#181818;stroke-width:1.0;" x1="298.5" x2="298.5" y1="588.6914" y2="620.1445"/><polygon fill="#181818" points="294.5,610.1445,298.5,620.1445,302.5,610.1445,298.5,614.1445" style="stroke:#181818;stroke-width:1.0;"/><line style="stroke:#181818;stroke-width:1.0;" x1="298.5" x2="298.5" y1="626.1445" y2="646.1445"/><polygon fill="#181818" points="294.5,636.1445,298.5,646.1445,302.5,636.1445,298.5,640.1445" style="stroke:#181818;stroke-width:1.0;"/><line style="stroke:#181818;stroke-width:1.0;" x1="298.5" x2="298.5" y1="681.2383" y2="701.2383"/><polygon fill="#181818" points="294.5,691.2383,298.5,701.2383,302.5,691.2383,298.5,695.2383" style="stroke:#181818;stroke-width:1.0;"/><line style="stroke:#181818;stroke-width:1.0;" x1="298.5" x2="298.5" y1="707.2383" y2="727.2383"/><polygon fill="#181818" points="294.5,717.2383,298.5,727.2383,302.5,717.2383,298.5,721.2383" style="stroke:#181818;stroke-width:1.0;"/><line style="stroke:#181818;stroke-width:1.0;" x1="298.5" x2="298.5" y1="762.332" y2="782.332"/><polygon fill="#181818" points="294.5,772.332,298.5,782.332,302.5,772.332,298.5,776.332" style="stroke:#181818;stroke-width:1.0;"/><line style="stroke:#181818;stroke-width:1.0;" x1="298.5" x2="298.5" y1="817.4258" y2="837.4258"/><polygon fill="#181818" points="294.5,827.4258,298.5,837.4258,302.5,827.4258,298.5,831.4258" style="stroke:#181818;stroke-width:1.0;"/><line style="stroke:#181818;stroke-width:1.0;" x1="298.5" x2="298.5" y1="916.5195" y2="941.4375"/><polygon fill="#181818" points="294.5,931.4375,298.5,941.4375,302.5,931.4375,298.5,935.4375" style="stroke:#181818;stroke-width:1.0;"/><line style="stroke:#181818;stroke-width:1.0;" x1="533" x2="545" y1="904.5195" y2="904.5195"/><polygon fill="#181818" points="541,948.9844,545,958.9844,549,948.9844,545,952.9844" style="stroke:#181818;stroke-width:1.0;"/><line style="stroke:#181818;stroke-width:1.0;" x1="545" x2="545" y1="904.5195" y2="1008.5313"/><line style="stroke:#181818;stroke-width:1.0;" x1="545" x2="310.5" y1="1008.5313" y2="1008.5313"/><polygon fill="#181818" points="320.5,1004.5313,310.5,1008.5313,320.5,1012.5313,316.5,1008.5313" style="stroke:#181818;stroke-width:1.0;"/><line style="stroke:#181818;stroke-width:1.0;" x1="298.5" x2="298.5" y1="976.5313" y2="996.5313"/><polygon fill="#181818" points="294.5,986.5313,298.5,996.5313,302.5,986.5313,298.5,990.5313" style="stroke:#181818;stroke-width:1.0;"/><line style="stroke:#181818;stroke-width:1.0;" x1="298.5" x2="298.5" y1="872.5195" y2="892.5195"/><polygon fill="#181818" points="294.5,882.5195,298.5,892.5195,302.5,882.5195,298.5,886.5195" style="stroke:#181818;stroke-width:1.0;"/><line style="stroke:#181818;stroke-width:1.0;" x1="298.5" x2="298.5" y1="175.4453" y2="195.4453"/><polygon fill="#181818" points="294.5,185.4453,298.5,195.4453,302.5,185.4453,298.5,189.4453" style="stroke:#181818;stroke-width:1.0;"/><line style="stroke:#181818;stroke-width:1.0;" x1="298.5" x2="298.5" y1="1020.5313" y2="1030.5313"/><line style="stroke:#181818;stroke-width:1.0;" x1="298.5" x2="586.25" y1="1030.5313" y2="1030.5313"/><polygon fill="#181818" points="582.25,612.6914,586.25,602.6914,590.25,612.6914,586.25,608.6914" style="stroke:#181818;stroke-width:1.0;"/><line style="stroke:#181818;stroke-width:1.0;" x1="586.25" x2="586.25" y1="163.4453" y2="1030.5313"/><line style="stroke:#181818;stroke-width:1.0;" x1="586.25" x2="419.5" y1="163.4453" y2="163.4453"/><polygon fill="#181818" points="429.5,159.4453,419.5,163.4453,429.5,167.4453,425.5,163.4453" style="stroke:#181818;stroke-width:1.0;"/><line style="stroke:#181818;stroke-width:1.0;" x1="177.5" x2="24" y1="163.4453" y2="163.4453"/><polygon fill="#181818" points="20,598.6914,24,608.6914,28,598.6914,24,602.6914" style="stroke:#181818;stroke-width:1.0;"/><line style="stroke:#181818;stroke-width:1.0;" x1="24" x2="24" y1="163.4453" y2="1042.5313"/><line style="stroke:#181818;stroke-width:1.0;" x1="24" x2="298.5" y1="1042.5313" y2="1042.5313"/><line style="stroke:#181818;stroke-width:1.0;" x1="298.5" x2="298.5" y1="1042.5313" y2="1062.5313"/><polygon fill="#181818" points="294.5,1052.5313,298.5,1062.5313,302.5,1052.5313,298.5,1056.5313" style="stroke:#181818;stroke-width:1.0;"/><line style="stroke:#181818;stroke-width:1.0;" x1="298.5" x2="298.5" y1="131.4453" y2="151.4453"/><polygon fill="#181818" points="294.5,141.4453,298.5,151.4453,302.5,141.4453,298.5,145.4453" style="stroke:#181818;stroke-width:1.0;"/><!--MD5=[3ceb521b6038b58fae64b0f0c0c9084f]
@startuml "Fall C"

    note: drain the pipe
    start
        :initialize finishedCount = 0;
        while (for (int j = fillPipeCount; j != (-1 * fillPipeCount);)
            if (dbFiles.Count > designations.Count) then (yes)
                :rest = i - drainCount;
            else (no)
                :rest = dbFiles.Count - 1 - drainCount + finishedCount;
            endif
            if (rest < 0 ?) then (yes)
                break
            else (no)
            endif
            while (for (int taskDbIndex = 0; taskDbIndex < rest; taskDbIndex += 1))
                :Erstelle Task mit der Suche von Eintrag designation[i - taskDbIndex - drainCount] in \nDatenbank dbFiles[dbFilePosition - taskDbIndex - drainCount + finishedCount];
                :Inkrementiere runCounter;
            endwhile
            fork
                :&#8704; erstellten Tasks ausführen;
            end fork
            :Beenden aller Task abwarten;
            :Resultate falls vorhanden in die res-Liste aufnehmen;
            :Inkrementiere drainCount;
            if (dbFiles.Count < designations.Count && (dbFiles.Count + drainCount <= designations.Count) ?) then (yes)
                :Inkrementiere finishedCount;
            else (no)
            endif
        endwhile
    end

@enduml

PlantUML version 1.2022.7(Mon Aug 22 19:01:30 CEST 2022)
(GPL source distribution)
Java Runtime: Java(TM) SE Runtime Environment
JVM: Java HotSpot(TM) 64-Bit Server VM
Default Encoding: UTF-8
Language: de
Country: DE
--></g></svg>