<?xml version="1.0" encoding="UTF-8" standalone="no"?><svg xmlns="http://www.w3.org/2000/svg" xmlns:xlink="http://www.w3.org/1999/xlink" contentStyleType="text/css" height="374px" preserveAspectRatio="none" style="width:565px;height:374px;background:#FFFFFF;" version="1.1" viewBox="0 0 565 374" width="565px" zoomAndPan="magnify"><defs/><g><ellipse cx="285.5" cy="20" fill="#222222" rx="10" ry="10" style="stroke:#222222;stroke-width:1.0;"/><polygon fill="#F1F1F1" points="56,119,152,119,164,131,152,143,56,143,44,131,56,119" style="stroke:#181818;stroke-width:0.5;"/><text fill="#000000" font-family="sans-serif" font-size="11" lengthAdjust="spacing" textLength="18" x="108" y="154.4189">yes</text><text fill="#000000" font-family="sans-serif" font-size="11" lengthAdjust="spacing" textLength="96" x="56" y="135.501">runCounter &lt; fillPipe</text><rect fill="#F1F1F1" height="50.1875" rx="12.5" ry="12.5" style="stroke:#181818;stroke-width:0.5;" width="87" x="60.5" y="176.8359"/><text fill="#000000" font-family="sans-serif" font-size="12" lengthAdjust="spacing" textLength="30" x="70.5" y="199.293">Fall A</text><text fill="#000000" font-family="sans-serif" font-size="12" lengthAdjust="spacing" textLength="67" x="70.5" y="214.3867">"fill the pipe"</text><polygon fill="#F1F1F1" points="196,119,389,119,401,131,389,143,196,143,184,131,196,119" style="stroke:#181818;stroke-width:0.5;"/><text fill="#000000" font-family="sans-serif" font-size="11" lengthAdjust="spacing" textLength="18" x="296.5" y="154.4189">yes</text><text fill="#000000" font-family="sans-serif" font-size="11" lengthAdjust="spacing" textLength="193" x="196" y="135.501">runCounter &lt; (absoluteCounter - fillPipe)</text><text fill="#000000" font-family="sans-serif" font-size="11" lengthAdjust="spacing" textLength="12" x="401" y="128.583">no</text><rect fill="#F1F1F1" height="50.1875" rx="12.5" ry="12.5" style="stroke:#181818;stroke-width:0.5;" width="93" x="246" y="176.8359"/><text fill="#000000" font-family="sans-serif" font-size="12" lengthAdjust="spacing" textLength="31" x="256" y="199.293">Fall B</text><text fill="#000000" font-family="sans-serif" font-size="12" lengthAdjust="spacing" textLength="73" x="256" y="214.3867">"run the pipe"</text><rect fill="#F1F1F1" height="50.1875" rx="12.5" ry="12.5" style="stroke:#181818;stroke-width:0.5;" width="103" x="422.5" y="158.459"/><text fill="#000000" font-family="sans-serif" font-size="12" lengthAdjust="spacing" textLength="32" x="432.5" y="180.916">Fall C</text><text fill="#000000" font-family="sans-serif" font-size="12" lengthAdjust="spacing" textLength="83" x="432.5" y="196.0098">"drain the pipe"</text><rect fill="#F1F1F1" height="35.0938" rx="12.5" ry="12.5" style="stroke:#181818;stroke-width:0.5;" width="106" x="421" y="243.6465"/><text fill="#000000" font-family="sans-serif" font-size="12" lengthAdjust="spacing" textLength="86" x="431" y="266.1035">return result-list</text><ellipse cx="474" cy="309.7402" fill="none" rx="11" ry="11" style="stroke:#222222;stroke-width:1.0;"/><ellipse cx="474" cy="309.7402" fill="#222222" rx="6" ry="6" style="stroke:#111111;stroke-width:1.0;"/><polygon fill="#F1F1F1" points="208.5,50,362.5,50,374.5,62,362.5,74,208.5,74,196.5,62,208.5,50" style="stroke:#181818;stroke-width:0.5;"/><text fill="#000000" font-family="sans-serif" font-size="11" lengthAdjust="spacing" textLength="154" x="208.5" y="66.501">foreach product in list to search</text><ellipse cx="24" cy="104" fill="none" rx="10" ry="10" style="stroke:#222222;stroke-width:1.5;"/><line style="stroke:#222222;stroke-width:2.5;" x1="17.8128" x2="30.1872" y1="97.8128" y2="110.1872"/><line style="stroke:#222222;stroke-width:2.5;" x1="30.1872" x2="17.8128" y1="97.8128" y2="110.1872"/><line style="stroke:#181818;stroke-width:1.0;" x1="474" x2="474" y1="208.6465" y2="243.6465"/><polygon fill="#181818" points="470,233.6465,474,243.6465,478,233.6465,474,237.6465" style="stroke:#181818;stroke-width:1.0;"/><line style="stroke:#181818;stroke-width:1.0;" x1="474" x2="474" y1="278.7402" y2="298.7402"/><polygon fill="#181818" points="470,288.7402,474,298.7402,478,288.7402,474,292.7402" style="stroke:#181818;stroke-width:1.0;"/><line style="stroke:#181818;stroke-width:1.0;" x1="104" x2="104" y1="143" y2="176.8359"/><polygon fill="#181818" points="100,166.8359,104,176.8359,108,166.8359,104,170.8359" style="stroke:#181818;stroke-width:1.0;"/><line style="stroke:#181818;stroke-width:1.0;" x1="104" x2="104" y1="227.0234" y2="340.7402"/><polygon fill="#181818" points="100,330.7402,104,340.7402,108,330.7402,104,334.7402" style="stroke:#181818;stroke-width:1.0;"/><line style="stroke:#181818;stroke-width:1.0;" x1="292.5" x2="292.5" y1="143" y2="176.8359"/><polygon fill="#181818" points="288.5,166.8359,292.5,176.8359,296.5,166.8359,292.5,170.8359" style="stroke:#181818;stroke-width:1.0;"/><line style="stroke:#181818;stroke-width:1.0;" x1="292.5" x2="292.5" y1="227.0234" y2="340.7402"/><polygon fill="#181818" points="288.5,330.7402,292.5,340.7402,296.5,330.7402,292.5,334.7402" style="stroke:#181818;stroke-width:1.0;"/><line style="stroke:#181818;stroke-width:1.0;" x1="164" x2="184" y1="131" y2="131"/><polygon fill="#181818" points="174,127,184,131,174,135,178,131" style="stroke:#181818;stroke-width:1.0;"/><line style="stroke:#181818;stroke-width:1.0;" x1="285.5" x2="285.5" y1="74" y2="94"/><line style="stroke:#181818;stroke-width:1.0;" x1="285.5" x2="104" y1="94" y2="94"/><line style="stroke:#181818;stroke-width:1.0;" x1="104" x2="104" y1="94" y2="119"/><polygon fill="#181818" points="100,109,104,119,108,109,104,113" style="stroke:#181818;stroke-width:1.0;"/><line style="stroke:#181818;stroke-width:1.0;" x1="401" x2="474" y1="131" y2="131"/><line style="stroke:#181818;stroke-width:1.0;" x1="474" x2="474" y1="131" y2="158.459"/><polygon fill="#181818" points="470,148.459,474,158.459,478,148.459,474,152.459" style="stroke:#181818;stroke-width:1.0;"/><line style="stroke:#181818;stroke-width:1.0;" x1="104" x2="292.5" y1="340.7402" y2="340.7402"/><line style="stroke:#181818;stroke-width:1.0;" x1="285.5" x2="285.5" y1="340.7402" y2="350.7402"/><line style="stroke:#181818;stroke-width:1.0;" x1="285.5" x2="539" y1="350.7402" y2="350.7402"/><polygon fill="#181818" points="535,245.0996,539,235.0996,543,245.0996,539,241.0996" style="stroke:#181818;stroke-width:1.0;"/><line style="stroke:#181818;stroke-width:1.0;" x1="539" x2="539" y1="62" y2="350.7402"/><line style="stroke:#181818;stroke-width:1.0;" x1="539" x2="374.5" y1="62" y2="62"/><polygon fill="#181818" points="384.5,58,374.5,62,384.5,66,380.5,62" style="stroke:#181818;stroke-width:1.0;"/><line style="stroke:#181818;stroke-width:1.0;" x1="196.5" x2="24" y1="62" y2="62"/><line style="stroke:#181818;stroke-width:1.0;" x1="24" x2="24" y1="62" y2="94"/><polygon fill="#181818" points="20,84,24,94,28,84,24,88" style="stroke:#181818;stroke-width:1.0;"/><line style="stroke:#181818;stroke-width:1.0;" x1="285.5" x2="285.5" y1="30" y2="50"/><polygon fill="#181818" points="281.5,40,285.5,50,289.5,40,285.5,44" style="stroke:#181818;stroke-width:1.0;"/><!--MD5=[cae9eda13b077b9208503f6b20f150d5]
@startuml "Simultanius search on LiteDb-Files"

    start
    while (foreach product in list to search)
        if (runCounter < fillPipe) then (yes)
            :Fall A\n"fill the pipe";
        elseif (runCounter < (absoluteCounter - fillPipe)) then (yes)
            :Fall B\n"run the pipe";
        else (no)
            :Fall C\n"drain the pipe";
            :return result-list;
            stop
        endif
    endwhile
    end

@enduml

PlantUML version 1.2022.7(Mon Aug 22 19:01:30 CEST 2022)
(GPL source distribution)
Java Runtime: Java(TM) SE Runtime Environment
JVM: Java HotSpot(TM) 64-Bit Server VM
Default Encoding: UTF-8
Language: de
Country: DE
--></g></svg>