<?xml version="1.0" encoding="UTF-8" standalone="no"?><svg xmlns="http://www.w3.org/2000/svg" xmlns:xlink="http://www.w3.org/1999/xlink" contentStyleType="text/css" height="999px" preserveAspectRatio="none" style="width:677px;height:999px;background:#FFFFFF;" version="1.1" viewBox="0 0 677 999" width="677px" zoomAndPan="magnify"><defs/><g><ellipse cx="383.5" cy="20" fill="#222222" rx="10" ry="10" style="stroke:#222222;stroke-width:1.0;"/><polygon fill="#F1F1F1" points="352,94,415,94,427,106,415,118,352,118,340,106,352,94" style="stroke:#181818;stroke-width:0.5;"/><text fill="#000000" font-family="sans-serif" font-size="11" lengthAdjust="spacing" textLength="63" x="352" y="110.501">last product?</text><text fill="#000000" font-family="sans-serif" font-size="11" lengthAdjust="spacing" textLength="18" x="322" y="103.583">yes</text><text fill="#000000" font-family="sans-serif" font-size="11" lengthAdjust="spacing" textLength="12" x="427" y="103.583">no</text><rect fill="#F1F1F1" height="80.375" rx="12.5" ry="12.5" style="stroke:#181818;stroke-width:0.5;" width="176" x="149" y="128"/><text fill="#000000" font-family="sans-serif" font-size="12" lengthAdjust="spacing" textLength="143" x="159" y="150.457">j = index of current product</text><text fill="#000000" font-family="sans-serif" font-size="12" lengthAdjust="spacing" textLength="156" x="159" y="165.5508">k = amount of database-files</text><text fill="#000000" font-family="sans-serif" font-size="12" lengthAdjust="spacing" textLength="71" x="159" y="180.6445">runCount = 0</text><text fill="#000000" font-family="sans-serif" font-size="12" lengthAdjust="spacing" textLength="74" x="159" y="195.7383">endCount = 0</text><rect fill="#F1F1F1" height="35.0938" style="stroke:#181818;stroke-width:0.5;" width="182" x="146" y="291.375"/><line style="stroke:#181818;stroke-width:0.5;" x1="151" x2="151" y1="291.375" y2="326.4688"/><line style="stroke:#181818;stroke-width:0.5;" x1="323" x2="323" y1="291.375" y2="326.4688"/><text fill="#000000" font-family="sans-serif" font-size="12" lengthAdjust="spacing" textLength="162" x="156" y="313.832">search in file[k] after product[j]</text><rect fill="#F1F1F1" height="65.2813" rx="12.5" ry="12.5" style="stroke:#181818;stroke-width:0.5;" width="248" x="113" y="410.3867"/><text fill="#000000" font-family="sans-serif" font-size="12" lengthAdjust="spacing" textLength="78" x="123" y="432.8438">runCount += 1</text><text fill="#000000" font-family="sans-serif" font-size="12" lengthAdjust="spacing" textLength="19" x="123" y="447.9375">j = i</text><text fill="#000000" font-family="sans-serif" font-size="12" lengthAdjust="spacing" textLength="228" x="123" y="463.0313">k = (amount of database-files) - endCount</text><path d="M62,554.3555 L62,580.707 A0,0 0 0 0 62,580.707 L206,580.707 A0,0 0 0 0 206,580.707 L206,572.3555 L226,567.5313 L206,564.3555 L206,564.3555 L196,554.3555 L62,554.3555 A0,0 0 0 0 62,554.3555 " fill="#FEFFDD" style="stroke:#181818;stroke-width:0.5;"/><path d="M196,554.3555 L196,564.3555 L206,564.3555 L196,554.3555 " fill="#FEFFDD" style="stroke:#181818;stroke-width:0.5;"/><text fill="#000000" font-family="sans-serif" font-size="13" lengthAdjust="spacing" textLength="123" x="68" y="572.8506">goto return result-list;</text><ellipse cx="237" cy="567.5313" fill="none" rx="11" ry="11" style="stroke:#222222;stroke-width:1.0;"/><ellipse cx="237" cy="567.5313" fill="#222222" rx="6" ry="6" style="stroke:#111111;stroke-width:1.0;"/><polygon fill="#F1F1F1" points="220.5,505.4375,253.5,505.4375,265.5,517.4375,253.5,529.4375,220.5,529.4375,208.5,517.4375,220.5,505.4375" style="stroke:#181818;stroke-width:0.5;"/><text fill="#000000" font-family="sans-serif" font-size="11" lengthAdjust="spacing" textLength="18" x="241" y="540.8564">yes</text><text fill="#000000" font-family="sans-serif" font-size="11" lengthAdjust="spacing" textLength="33" x="220.5" y="521.9385">k == -1</text><polygon fill="#F1F1F1" points="194.5,630.7617,279.5,630.7617,291.5,642.7617,279.5,654.7617,194.5,654.7617,182.5,642.7617,194.5,630.7617" style="stroke:#181818;stroke-width:0.5;"/><text fill="#000000" font-family="sans-serif" font-size="11" lengthAdjust="spacing" textLength="18" x="241" y="666.1807">yes</text><text fill="#000000" font-family="sans-serif" font-size="11" lengthAdjust="spacing" textLength="85" x="194.5" y="647.2627">endCount != (j - k)</text><polygon fill="#F1F1F1" points="222.5,361.4688,251.5,361.4688,263.5,373.4688,251.5,385.4688,222.5,385.4688,210.5,373.4688,222.5,361.4688" style="stroke:#181818;stroke-width:0.5;"/><text fill="#000000" font-family="sans-serif" font-size="11" lengthAdjust="spacing" textLength="18" x="241" y="396.8877">yes</text><text fill="#000000" font-family="sans-serif" font-size="11" lengthAdjust="spacing" textLength="29" x="222.5" y="377.9697">k == 0</text><polygon fill="#F1F1F1" points="237,725.6797,249,737.6797,237,749.6797,225,737.6797,237,725.6797" style="stroke:#181818;stroke-width:0.5;"/><rect fill="#F1F1F1" height="50.1875" rx="12.5" ry="12.5" style="stroke:#181818;stroke-width:0.5;" width="50" x="212" y="769.6797"/><text fill="#000000" font-family="sans-serif" font-size="12" lengthAdjust="spacing" textLength="27" x="222" y="792.1367">j -= 1</text><text fill="#000000" font-family="sans-serif" font-size="12" lengthAdjust="spacing" textLength="30" x="222" y="807.2305">k -= 1</text><polygon fill="#F1F1F1" points="214.5,243.375,259.5,243.375,271.5,255.375,259.5,267.375,214.5,267.375,202.5,255.375,214.5,243.375" style="stroke:#181818;stroke-width:0.5;"/><text fill="#000000" font-family="sans-serif" font-size="11" lengthAdjust="spacing" textLength="45" x="214.5" y="259.876">j &gt;= (j - k)</text><rect fill="#F1F1F1" height="35.0938" rx="12.5" ry="12.5" style="stroke:#181818;stroke-width:0.5;" width="163" x="448.5" y="128"/><text fill="#000000" font-family="sans-serif" font-size="12" lengthAdjust="spacing" textLength="143" x="458.5" y="150.457">j = index of current product</text><rect fill="#F1F1F1" height="35.0938" rx="12.5" ry="12.5" style="stroke:#181818;stroke-width:0.5;" width="176" x="442" y="198.0938"/><text fill="#000000" font-family="sans-serif" font-size="12" lengthAdjust="spacing" textLength="156" x="452" y="220.5508">k = amount of database-files</text><rect fill="#F1F1F1" height="35.0938" style="stroke:#181818;stroke-width:0.5;" width="182" x="439" y="316.1875"/><line style="stroke:#181818;stroke-width:0.5;" x1="444" x2="444" y1="316.1875" y2="351.2813"/><line style="stroke:#181818;stroke-width:0.5;" x1="616" x2="616" y1="316.1875" y2="351.2813"/><text fill="#000000" font-family="sans-serif" font-size="12" lengthAdjust="spacing" textLength="162" x="449" y="338.6445">search in file[k] after product[j]</text><rect fill="#F1F1F1" height="50.1875" rx="12.5" ry="12.5" style="stroke:#181818;stroke-width:0.5;" width="50" x="505" y="386.2813"/><text fill="#000000" font-family="sans-serif" font-size="12" lengthAdjust="spacing" textLength="27" x="515" y="408.7383">j -= 1</text><text fill="#000000" font-family="sans-serif" font-size="12" lengthAdjust="spacing" textLength="30" x="515" y="423.832">k -= 1</text><polygon fill="#F1F1F1" points="492.5,268.1875,567.5,268.1875,579.5,280.1875,567.5,292.1875,492.5,292.1875,480.5,280.1875,492.5,268.1875" style="stroke:#181818;stroke-width:0.5;"/><text fill="#000000" font-family="sans-serif" font-size="11" lengthAdjust="spacing" textLength="75" x="492.5" y="284.6885">j &gt;= 0 &amp;&amp; k &gt;= 0</text><polygon fill="#F1F1F1" points="383.5,847.8672,395.5,859.8672,383.5,871.8672,371.5,859.8672,383.5,847.8672" style="stroke:#181818;stroke-width:0.5;"/><polygon fill="#F1F1F1" points="306.5,50,460.5,50,472.5,62,460.5,74,306.5,74,294.5,62,306.5,50" style="stroke:#181818;stroke-width:0.5;"/><text fill="#000000" font-family="sans-serif" font-size="11" lengthAdjust="spacing" textLength="154" x="306.5" y="66.501">foreach product in list to search</text><rect fill="#F1F1F1" height="35.0938" rx="12.5" ry="12.5" style="stroke:#181818;stroke-width:0.5;" width="109" x="329" y="913.8672"/><text fill="#000000" font-family="sans-serif" font-size="12" lengthAdjust="spacing" textLength="86" x="342" y="936.3242">return result-list</text><ellipse cx="383.5" cy="978.9609" fill="none" rx="10" ry="10" style="stroke:#222222;stroke-width:1.5;"/><line style="stroke:#222222;stroke-width:2.5;" x1="377.3128" x2="389.6872" y1="972.7738" y2="985.1481"/><line style="stroke:#222222;stroke-width:2.5;" x1="389.6872" x2="377.3128" y1="972.7738" y2="985.1481"/><line style="stroke:#181818;stroke-width:1.0;" x1="237" x2="237" y1="529.4375" y2="556.5313"/><polygon fill="#181818" points="233,546.5313,237,556.5313,241,546.5313,237,550.5313" style="stroke:#181818;stroke-width:1.0;"/><line style="stroke:#181818;stroke-width:1.0;" x1="265.5" x2="277.5" y1="517.4375" y2="517.4375"/><polygon fill="#181818" points="273.5,554.5313,277.5,564.5313,281.5,554.5313,277.5,558.5313" style="stroke:#181818;stroke-width:1.0;"/><line style="stroke:#181818;stroke-width:1.0;" x1="277.5" x2="277.5" y1="517.4375" y2="610.7617"/><line style="stroke:#181818;stroke-width:1.0;" x1="277.5" x2="237" y1="610.7617" y2="610.7617"/><line style="stroke:#181818;stroke-width:1.0;" x1="237" x2="237" y1="610.7617" y2="630.7617"/><polygon fill="#181818" points="233,620.7617,237,630.7617,241,620.7617,237,624.7617" style="stroke:#181818;stroke-width:1.0;"/><line style="stroke:#181818;stroke-width:1.0;" x1="237" x2="237" y1="475.668" y2="505.4375"/><polygon fill="#181818" points="233,495.4375,237,505.4375,241,495.4375,237,499.4375" style="stroke:#181818;stroke-width:1.0;"/><line style="stroke:#181818;stroke-width:1.0;" x1="237" x2="237" y1="654.7617" y2="679.6797"/><line style="stroke:#181818;stroke-width:1.0;" x1="237" x2="42" y1="679.6797" y2="679.6797"/><polygon fill="#181818" points="52,675.6797,42,679.6797,52,683.6797,48,679.6797" style="stroke:#181818;stroke-width:1.0;"/><line style="stroke:#181818;stroke-width:1.0;" x1="291.5" x2="303.5" y1="642.7617" y2="642.7617"/><polygon fill="#181818" points="299.5,666.6797,303.5,676.6797,307.5,666.6797,303.5,670.6797" style="stroke:#181818;stroke-width:1.0;"/><line style="stroke:#181818;stroke-width:1.0;" x1="303.5" x2="303.5" y1="642.7617" y2="705.6797"/><line style="stroke:#181818;stroke-width:1.0;" x1="303.5" x2="237" y1="705.6797" y2="705.6797"/><line style="stroke:#181818;stroke-width:1.0;" x1="237" x2="237" y1="705.6797" y2="725.6797"/><polygon fill="#181818" points="233,715.6797,237,725.6797,241,715.6797,237,719.6797" style="stroke:#181818;stroke-width:1.0;"/><line style="stroke:#181818;stroke-width:1.0;" x1="237" x2="237" y1="385.4688" y2="410.3867"/><polygon fill="#181818" points="233,400.3867,237,410.3867,241,400.3867,237,404.3867" style="stroke:#181818;stroke-width:1.0;"/><line style="stroke:#181818;stroke-width:1.0;" x1="263.5" x2="371" y1="373.4688" y2="373.4688"/><polygon fill="#181818" points="367,555.8086,371,565.8086,375,555.8086,371,559.8086" style="stroke:#181818;stroke-width:1.0;"/><line style="stroke:#181818;stroke-width:1.0;" x1="371" x2="371" y1="373.4688" y2="737.6797"/><line style="stroke:#181818;stroke-width:1.0;" x1="371" x2="249" y1="737.6797" y2="737.6797"/><polygon fill="#181818" points="259,733.6797,249,737.6797,259,741.6797,255,737.6797" style="stroke:#181818;stroke-width:1.0;"/><line style="stroke:#181818;stroke-width:1.0;" x1="237" x2="237" y1="326.4688" y2="361.4688"/><polygon fill="#181818" points="233,351.4688,237,361.4688,241,351.4688,237,355.4688" style="stroke:#181818;stroke-width:1.0;"/><line style="stroke:#181818;stroke-width:1.0;" x1="237" x2="237" y1="749.6797" y2="769.6797"/><polygon fill="#181818" points="233,759.6797,237,769.6797,241,759.6797,237,763.6797" style="stroke:#181818;stroke-width:1.0;"/><line style="stroke:#181818;stroke-width:1.0;" x1="237" x2="237" y1="267.375" y2="291.375"/><polygon fill="#181818" points="233,281.375,237,291.375,241,281.375,237,285.375" style="stroke:#181818;stroke-width:1.0;"/><line style="stroke:#181818;stroke-width:1.0;" x1="237" x2="237" y1="819.8672" y2="829.8672"/><line style="stroke:#181818;stroke-width:1.0;" x1="237" x2="395" y1="829.8672" y2="829.8672"/><polygon fill="#181818" points="391,571.3555,395,561.3555,399,571.3555,395,567.3555" style="stroke:#181818;stroke-width:1.0;"/><line style="stroke:#181818;stroke-width:1.0;" x1="395" x2="395" y1="255.375" y2="829.8672"/><line style="stroke:#181818;stroke-width:1.0;" x1="395" x2="271.5" y1="255.375" y2="255.375"/><polygon fill="#181818" points="281.5,251.375,271.5,255.375,281.5,259.375,277.5,255.375" style="stroke:#181818;stroke-width:1.0;"/><line style="stroke:#181818;stroke-width:1.0;" x1="202.5" x2="42" y1="255.375" y2="255.375"/><polygon fill="#181818" points="38,566.3555,42,576.3555,46,566.3555,42,570.3555" style="stroke:#181818;stroke-width:1.0;"/><line style="stroke:#181818;stroke-width:1.0;" x1="42" x2="42" y1="255.375" y2="859.8672"/><line style="stroke:#181818;stroke-width:1.0;" x1="42" x2="371.5" y1="859.8672" y2="859.8672"/><polygon fill="#181818" points="361.5,855.8672,371.5,859.8672,361.5,863.8672,365.5,859.8672" style="stroke:#181818;stroke-width:1.0;"/><line style="stroke:#181818;stroke-width:1.0;" x1="237" x2="237" y1="208.375" y2="243.375"/><polygon fill="#181818" points="233,233.375,237,243.375,241,233.375,237,237.375" style="stroke:#181818;stroke-width:1.0;"/><line style="stroke:#181818;stroke-width:1.0;" x1="530" x2="530" y1="163.0938" y2="198.0938"/><polygon fill="#181818" points="526,188.0938,530,198.0938,534,188.0938,530,192.0938" style="stroke:#181818;stroke-width:1.0;"/><line style="stroke:#181818;stroke-width:1.0;" x1="530" x2="530" y1="351.2813" y2="386.2813"/><polygon fill="#181818" points="526,376.2813,530,386.2813,534,376.2813,530,380.2813" style="stroke:#181818;stroke-width:1.0;"/><line style="stroke:#181818;stroke-width:1.0;" x1="530" x2="530" y1="292.1875" y2="316.1875"/><polygon fill="#181818" points="526,306.1875,530,316.1875,534,306.1875,530,310.1875" style="stroke:#181818;stroke-width:1.0;"/><line style="stroke:#181818;stroke-width:1.0;" x1="530" x2="530" y1="436.4688" y2="448.4688"/><line style="stroke:#181818;stroke-width:1.0;" x1="530" x2="633" y1="448.4688" y2="448.4688"/><polygon fill="#181818" points="629,374.3281,633,364.3281,637,374.3281,633,370.3281" style="stroke:#181818;stroke-width:1.0;"/><line style="stroke:#181818;stroke-width:1.0;" x1="633" x2="633" y1="280.1875" y2="448.4688"/><line style="stroke:#181818;stroke-width:1.0;" x1="633" x2="579.5" y1="280.1875" y2="280.1875"/><polygon fill="#181818" points="589.5,276.1875,579.5,280.1875,589.5,284.1875,585.5,280.1875" style="stroke:#181818;stroke-width:1.0;"/><line style="stroke:#181818;stroke-width:1.0;" x1="480.5" x2="427" y1="280.1875" y2="280.1875"/><polygon fill="#181818" points="423,578.7617,427,588.7617,431,578.7617,427,582.7617" style="stroke:#181818;stroke-width:1.0;"/><line style="stroke:#181818;stroke-width:1.0;" x1="427" x2="427" y1="280.1875" y2="859.8672"/><line style="stroke:#181818;stroke-width:1.0;" x1="427" x2="395.5" y1="859.8672" y2="859.8672"/><polygon fill="#181818" points="405.5,855.8672,395.5,859.8672,405.5,863.8672,401.5,859.8672" style="stroke:#181818;stroke-width:1.0;"/><line style="stroke:#181818;stroke-width:1.0;" x1="530" x2="530" y1="233.1875" y2="268.1875"/><polygon fill="#181818" points="526,258.1875,530,268.1875,534,258.1875,530,262.1875" style="stroke:#181818;stroke-width:1.0;"/><line style="stroke:#181818;stroke-width:1.0;" x1="340" x2="237" y1="106" y2="106"/><line style="stroke:#181818;stroke-width:1.0;" x1="237" x2="237" y1="106" y2="128"/><polygon fill="#181818" points="233,118,237,128,241,118,237,122" style="stroke:#181818;stroke-width:1.0;"/><line style="stroke:#181818;stroke-width:1.0;" x1="427" x2="530" y1="106" y2="106"/><line style="stroke:#181818;stroke-width:1.0;" x1="530" x2="530" y1="106" y2="128"/><polygon fill="#181818" points="526,118,530,128,534,118,530,122" style="stroke:#181818;stroke-width:1.0;"/><line style="stroke:#181818;stroke-width:1.0;" x1="383.5" x2="383.5" y1="74" y2="94"/><polygon fill="#181818" points="379.5,84,383.5,94,387.5,84,383.5,88" style="stroke:#181818;stroke-width:1.0;"/><line style="stroke:#181818;stroke-width:1.0;" x1="383.5" x2="383.5" y1="871.8672" y2="881.8672"/><line style="stroke:#181818;stroke-width:1.0;" x1="383.5" x2="651" y1="881.8672" y2="881.8672"/><polygon fill="#181818" points="647,499.668,651,489.668,655,499.668,651,495.668" style="stroke:#181818;stroke-width:1.0;"/><line style="stroke:#181818;stroke-width:1.0;" x1="651" x2="651" y1="62" y2="881.8672"/><line style="stroke:#181818;stroke-width:1.0;" x1="651" x2="472.5" y1="62" y2="62"/><polygon fill="#181818" points="482.5,58,472.5,62,482.5,66,478.5,62" style="stroke:#181818;stroke-width:1.0;"/><line style="stroke:#181818;stroke-width:1.0;" x1="294.5" x2="24" y1="62" y2="62"/><polygon fill="#181818" points="20,485.668,24,495.668,28,485.668,24,489.668" style="stroke:#181818;stroke-width:1.0;"/><line style="stroke:#181818;stroke-width:1.0;" x1="24" x2="24" y1="62" y2="893.8672"/><line style="stroke:#181818;stroke-width:1.0;" x1="24" x2="383.5" y1="893.8672" y2="893.8672"/><line style="stroke:#181818;stroke-width:1.0;" x1="383.5" x2="383.5" y1="893.8672" y2="913.8672"/><polygon fill="#181818" points="379.5,903.8672,383.5,913.8672,387.5,903.8672,383.5,907.8672" style="stroke:#181818;stroke-width:1.0;"/><line style="stroke:#181818;stroke-width:1.0;" x1="383.5" x2="383.5" y1="30" y2="50"/><polygon fill="#181818" points="379.5,40,383.5,50,387.5,40,383.5,44" style="stroke:#181818;stroke-width:1.0;"/><line style="stroke:#181818;stroke-width:1.0;" x1="383.5" x2="383.5" y1="948.9609" y2="968.9609"/><polygon fill="#181818" points="379.5,958.9609,383.5,968.9609,387.5,958.9609,383.5,962.9609" style="stroke:#181818;stroke-width:1.0;"/><!--MD5=[db4007be1d6c036741d09d784db68ec8]
@startuml "Simultanius search on LiteDb-Files"

    start
    while (foreach product in list to search) 
        if (last product?) then (yes)
            :j = index of current product
            k = amount of database-files
            runCount = 0
            endCount = 0;
            while (j >= (j - k))
                :search in file[k] after product[j]|
                if (k == 0) then (yes)
                    :runCount += 1
                    j = i
                    k = (amount of database-files) - endCount;
                    if (k == -1) then (yes)
                        stop
                        note left: goto return result-list;
                    endif
                    if (endCount != (j - k)) then (yes)
                        break
                    endif
                endif
                :j -= 1
                k -= 1;
            endwhile
        else (no)
            :j = index of current product;
            :k = amount of database-files;
            while (j >= 0 && k >= 0)
                ' fork
                :search in file[k] after product[j]|
                :j -= 1
                k -= 1;
                ' end fork
            endwhile
        endif
    endwhile
    : return result-list;
    end

@enduml

@startuml "Simultanius search on LiteDb-Files"

    start
    while (foreach product in list to search) 
        if (last product?) then (yes)
            :j = index of current product
            k = amount of database-files
            runCount = 0
            endCount = 0;
            while (j >= (j - k))
                :search in file[k] after product[j]|
                if (k == 0) then (yes)
                    :runCount += 1
                    j = i
                    k = (amount of database-files) - endCount;
                    if (k == -1) then (yes)
                        stop
                        note left: goto return result-list;
                    endif
                    if (endCount != (j - k)) then (yes)
                        break
                    endif
                endif
                :j -= 1
                k -= 1;
            endwhile
        else (no)
            :j = index of current product;
            :k = amount of database-files;
            while (j >= 0 && k >= 0)
                :search in file[k] after product[j]|
                :j -= 1
                k -= 1;
            endwhile
        endif
    endwhile
    : return result-list;
    end

@enduml

PlantUML version 1.2022.7(Mon Aug 22 19:01:30 CEST 2022)
(GPL source distribution)
Java Runtime: Java(TM) SE Runtime Environment
JVM: Java HotSpot(TM) 64-Bit Server VM
Default Encoding: Cp1252
Language: de
Country: DE
--></g></svg>