<?xml version="1.0" encoding="UTF-8" standalone="no"?><svg xmlns="http://www.w3.org/2000/svg" xmlns:xlink="http://www.w3.org/1999/xlink" contentStyleType="text/css" height="1046px" preserveAspectRatio="none" style="width:677px;height:1046px;background:#FFFFFF;" version="1.1" viewBox="0 0 677 1046" width="677px" zoomAndPan="magnify"><defs/><g><path d="M268,10 L268,36.3516 L499,36.3516 L499,20 L489,10 L268,10 " fill="#FEFFDD" style="stroke:#181818;stroke-width:0.5;"/><path d="M489,10 L489,20 L499,20 L489,10 " fill="#FEFFDD" style="stroke:#181818;stroke-width:0.5;"/><text fill="#000000" font-family="sans-serif" font-size="13" lengthAdjust="spacing" textLength="210" x="274" y="28.4951">Nicht mehr aktuell - zu überarbeiten;</text><ellipse cx="383.5" cy="66.3516" fill="#222222" rx="10" ry="10" style="stroke:#222222;stroke-width:1.0;"/><polygon fill="#F1F1F1" points="352,140.3516,415,140.3516,427,152.3516,415,164.3516,352,164.3516,340,152.3516,352,140.3516" style="stroke:#181818;stroke-width:0.5;"/><text fill="#000000" font-family="sans-serif" font-size="11" lengthAdjust="spacing" textLength="63" x="352" y="156.8525">last product?</text><text fill="#000000" font-family="sans-serif" font-size="11" lengthAdjust="spacing" textLength="18" x="322" y="149.9346">yes</text><text fill="#000000" font-family="sans-serif" font-size="11" lengthAdjust="spacing" textLength="12" x="427" y="149.9346">no</text><rect fill="#F1F1F1" height="80.375" rx="12.5" ry="12.5" style="stroke:#181818;stroke-width:0.5;" width="176" x="149" y="174.3516"/><text fill="#000000" font-family="sans-serif" font-size="12" lengthAdjust="spacing" textLength="143" x="159" y="196.8086">j = index of current product</text><text fill="#000000" font-family="sans-serif" font-size="12" lengthAdjust="spacing" textLength="156" x="159" y="211.9023">k = amount of database-files</text><text fill="#000000" font-family="sans-serif" font-size="12" lengthAdjust="spacing" textLength="71" x="159" y="226.9961">runCount = 0</text><text fill="#000000" font-family="sans-serif" font-size="12" lengthAdjust="spacing" textLength="74" x="159" y="242.0898">endCount = 0</text><rect fill="#F1F1F1" height="35.0938" style="stroke:#181818;stroke-width:0.5;" width="182" x="146" y="337.7266"/><line style="stroke:#181818;stroke-width:0.5;" x1="151" x2="151" y1="337.7266" y2="372.8203"/><line style="stroke:#181818;stroke-width:0.5;" x1="323" x2="323" y1="337.7266" y2="372.8203"/><text fill="#000000" font-family="sans-serif" font-size="12" lengthAdjust="spacing" textLength="162" x="156" y="360.1836">search in file[k] after product[j]</text><rect fill="#F1F1F1" height="65.2813" rx="12.5" ry="12.5" style="stroke:#181818;stroke-width:0.5;" width="248" x="113" y="456.7383"/><text fill="#000000" font-family="sans-serif" font-size="12" lengthAdjust="spacing" textLength="78" x="123" y="479.1953">runCount += 1</text><text fill="#000000" font-family="sans-serif" font-size="12" lengthAdjust="spacing" textLength="19" x="123" y="494.2891">j = i</text><text fill="#000000" font-family="sans-serif" font-size="12" lengthAdjust="spacing" textLength="228" x="123" y="509.3828">k = (amount of database-files) - endCount</text><path d="M62,600.707 L62,627.0586 A0,0 0 0 0 62,627.0586 L206,627.0586 A0,0 0 0 0 206,627.0586 L206,618.707 L226,613.8828 L206,610.707 L206,610.707 L196,600.707 L62,600.707 A0,0 0 0 0 62,600.707 " fill="#FEFFDD" style="stroke:#181818;stroke-width:0.5;"/><path d="M196,600.707 L196,610.707 L206,610.707 L196,600.707 " fill="#FEFFDD" style="stroke:#181818;stroke-width:0.5;"/><text fill="#000000" font-family="sans-serif" font-size="13" lengthAdjust="spacing" textLength="123" x="68" y="619.2021">goto return result-list;</text><ellipse cx="237" cy="613.8828" fill="none" rx="11" ry="11" style="stroke:#222222;stroke-width:1.0;"/><ellipse cx="237" cy="613.8828" fill="#222222" rx="6" ry="6" style="stroke:#111111;stroke-width:1.0;"/><polygon fill="#F1F1F1" points="220.5,551.7891,253.5,551.7891,265.5,563.7891,253.5,575.7891,220.5,575.7891,208.5,563.7891,220.5,551.7891" style="stroke:#181818;stroke-width:0.5;"/><text fill="#000000" font-family="sans-serif" font-size="11" lengthAdjust="spacing" textLength="18" x="241" y="587.208">yes</text><text fill="#000000" font-family="sans-serif" font-size="11" lengthAdjust="spacing" textLength="33" x="220.5" y="568.29">k == -1</text><polygon fill="#F1F1F1" points="194.5,677.1133,279.5,677.1133,291.5,689.1133,279.5,701.1133,194.5,701.1133,182.5,689.1133,194.5,677.1133" style="stroke:#181818;stroke-width:0.5;"/><text fill="#000000" font-family="sans-serif" font-size="11" lengthAdjust="spacing" textLength="18" x="241" y="712.5322">yes</text><text fill="#000000" font-family="sans-serif" font-size="11" lengthAdjust="spacing" textLength="85" x="194.5" y="693.6143">endCount != (j - k)</text><polygon fill="#F1F1F1" points="222.5,407.8203,251.5,407.8203,263.5,419.8203,251.5,431.8203,222.5,431.8203,210.5,419.8203,222.5,407.8203" style="stroke:#181818;stroke-width:0.5;"/><text fill="#000000" font-family="sans-serif" font-size="11" lengthAdjust="spacing" textLength="18" x="241" y="443.2393">yes</text><text fill="#000000" font-family="sans-serif" font-size="11" lengthAdjust="spacing" textLength="29" x="222.5" y="424.3213">k == 0</text><polygon fill="#F1F1F1" points="237,772.0313,249,784.0313,237,796.0313,225,784.0313,237,772.0313" style="stroke:#181818;stroke-width:0.5;"/><rect fill="#F1F1F1" height="50.1875" rx="12.5" ry="12.5" style="stroke:#181818;stroke-width:0.5;" width="50" x="212" y="816.0313"/><text fill="#000000" font-family="sans-serif" font-size="12" lengthAdjust="spacing" textLength="27" x="222" y="838.4883">j -= 1</text><text fill="#000000" font-family="sans-serif" font-size="12" lengthAdjust="spacing" textLength="30" x="222" y="853.582">k -= 1</text><polygon fill="#F1F1F1" points="214.5,289.7266,259.5,289.7266,271.5,301.7266,259.5,313.7266,214.5,313.7266,202.5,301.7266,214.5,289.7266" style="stroke:#181818;stroke-width:0.5;"/><text fill="#000000" font-family="sans-serif" font-size="11" lengthAdjust="spacing" textLength="45" x="214.5" y="306.2275">j &gt;= (j - k)</text><rect fill="#F1F1F1" height="35.0938" rx="12.5" ry="12.5" style="stroke:#181818;stroke-width:0.5;" width="163" x="448.5" y="174.3516"/><text fill="#000000" font-family="sans-serif" font-size="12" lengthAdjust="spacing" textLength="143" x="458.5" y="196.8086">j = index of current product</text><rect fill="#F1F1F1" height="35.0938" rx="12.5" ry="12.5" style="stroke:#181818;stroke-width:0.5;" width="176" x="442" y="244.4453"/><text fill="#000000" font-family="sans-serif" font-size="12" lengthAdjust="spacing" textLength="156" x="452" y="266.9023">k = amount of database-files</text><rect fill="#F1F1F1" height="35.0938" style="stroke:#181818;stroke-width:0.5;" width="182" x="439" y="362.5391"/><line style="stroke:#181818;stroke-width:0.5;" x1="444" x2="444" y1="362.5391" y2="397.6328"/><line style="stroke:#181818;stroke-width:0.5;" x1="616" x2="616" y1="362.5391" y2="397.6328"/><text fill="#000000" font-family="sans-serif" font-size="12" lengthAdjust="spacing" textLength="162" x="449" y="384.9961">search in file[k] after product[j]</text><rect fill="#F1F1F1" height="50.1875" rx="12.5" ry="12.5" style="stroke:#181818;stroke-width:0.5;" width="50" x="505" y="432.6328"/><text fill="#000000" font-family="sans-serif" font-size="12" lengthAdjust="spacing" textLength="27" x="515" y="455.0898">j -= 1</text><text fill="#000000" font-family="sans-serif" font-size="12" lengthAdjust="spacing" textLength="30" x="515" y="470.1836">k -= 1</text><polygon fill="#F1F1F1" points="492.5,314.5391,567.5,314.5391,579.5,326.5391,567.5,338.5391,492.5,338.5391,480.5,326.5391,492.5,314.5391" style="stroke:#181818;stroke-width:0.5;"/><text fill="#000000" font-family="sans-serif" font-size="11" lengthAdjust="spacing" textLength="75" x="492.5" y="331.04">j &gt;= 0 &amp;&amp; k &gt;= 0</text><polygon fill="#F1F1F1" points="383.5,894.2188,395.5,906.2188,383.5,918.2188,371.5,906.2188,383.5,894.2188" style="stroke:#181818;stroke-width:0.5;"/><polygon fill="#F1F1F1" points="306.5,96.3516,460.5,96.3516,472.5,108.3516,460.5,120.3516,306.5,120.3516,294.5,108.3516,306.5,96.3516" style="stroke:#181818;stroke-width:0.5;"/><text fill="#000000" font-family="sans-serif" font-size="11" lengthAdjust="spacing" textLength="154" x="306.5" y="112.8525">foreach product in list to search</text><rect fill="#F1F1F1" height="35.0938" rx="12.5" ry="12.5" style="stroke:#181818;stroke-width:0.5;" width="109" x="329" y="960.2188"/><text fill="#000000" font-family="sans-serif" font-size="12" lengthAdjust="spacing" textLength="86" x="342" y="982.6758">return result-list</text><ellipse cx="383.5" cy="1025.3125" fill="none" rx="10" ry="10" style="stroke:#222222;stroke-width:1.5;"/><line style="stroke:#222222;stroke-width:2.5;" x1="377.3128" x2="389.6872" y1="1019.1253" y2="1031.4997"/><line style="stroke:#222222;stroke-width:2.5;" x1="389.6872" x2="377.3128" y1="1019.1253" y2="1031.4997"/><line style="stroke:#181818;stroke-width:1.0;" x1="383.5" x2="383.5" y1="36.3516" y2="56.3516"/><polygon fill="#181818" points="379.5,46.3516,383.5,56.3516,387.5,46.3516,383.5,50.3516" style="stroke:#181818;stroke-width:1.0;"/><line style="stroke:#181818;stroke-width:1.0;" x1="237" x2="237" y1="575.7891" y2="602.8828"/><polygon fill="#181818" points="233,592.8828,237,602.8828,241,592.8828,237,596.8828" style="stroke:#181818;stroke-width:1.0;"/><line style="stroke:#181818;stroke-width:1.0;" x1="265.5" x2="277.5" y1="563.7891" y2="563.7891"/><polygon fill="#181818" points="273.5,600.8828,277.5,610.8828,281.5,600.8828,277.5,604.8828" style="stroke:#181818;stroke-width:1.0;"/><line style="stroke:#181818;stroke-width:1.0;" x1="277.5" x2="277.5" y1="563.7891" y2="657.1133"/><line style="stroke:#181818;stroke-width:1.0;" x1="277.5" x2="237" y1="657.1133" y2="657.1133"/><line style="stroke:#181818;stroke-width:1.0;" x1="237" x2="237" y1="657.1133" y2="677.1133"/><polygon fill="#181818" points="233,667.1133,237,677.1133,241,667.1133,237,671.1133" style="stroke:#181818;stroke-width:1.0;"/><line style="stroke:#181818;stroke-width:1.0;" x1="237" x2="237" y1="522.0195" y2="551.7891"/><polygon fill="#181818" points="233,541.7891,237,551.7891,241,541.7891,237,545.7891" style="stroke:#181818;stroke-width:1.0;"/><line style="stroke:#181818;stroke-width:1.0;" x1="237" x2="237" y1="701.1133" y2="726.0313"/><line style="stroke:#181818;stroke-width:1.0;" x1="237" x2="42" y1="726.0313" y2="726.0313"/><polygon fill="#181818" points="52,722.0313,42,726.0313,52,730.0313,48,726.0313" style="stroke:#181818;stroke-width:1.0;"/><line style="stroke:#181818;stroke-width:1.0;" x1="291.5" x2="303.5" y1="689.1133" y2="689.1133"/><polygon fill="#181818" points="299.5,713.0313,303.5,723.0313,307.5,713.0313,303.5,717.0313" style="stroke:#181818;stroke-width:1.0;"/><line style="stroke:#181818;stroke-width:1.0;" x1="303.5" x2="303.5" y1="689.1133" y2="752.0313"/><line style="stroke:#181818;stroke-width:1.0;" x1="303.5" x2="237" y1="752.0313" y2="752.0313"/><line style="stroke:#181818;stroke-width:1.0;" x1="237" x2="237" y1="752.0313" y2="772.0313"/><polygon fill="#181818" points="233,762.0313,237,772.0313,241,762.0313,237,766.0313" style="stroke:#181818;stroke-width:1.0;"/><line style="stroke:#181818;stroke-width:1.0;" x1="237" x2="237" y1="431.8203" y2="456.7383"/><polygon fill="#181818" points="233,446.7383,237,456.7383,241,446.7383,237,450.7383" style="stroke:#181818;stroke-width:1.0;"/><line style="stroke:#181818;stroke-width:1.0;" x1="263.5" x2="371" y1="419.8203" y2="419.8203"/><polygon fill="#181818" points="367,602.1602,371,612.1602,375,602.1602,371,606.1602" style="stroke:#181818;stroke-width:1.0;"/><line style="stroke:#181818;stroke-width:1.0;" x1="371" x2="371" y1="419.8203" y2="784.0313"/><line style="stroke:#181818;stroke-width:1.0;" x1="371" x2="249" y1="784.0313" y2="784.0313"/><polygon fill="#181818" points="259,780.0313,249,784.0313,259,788.0313,255,784.0313" style="stroke:#181818;stroke-width:1.0;"/><line style="stroke:#181818;stroke-width:1.0;" x1="237" x2="237" y1="372.8203" y2="407.8203"/><polygon fill="#181818" points="233,397.8203,237,407.8203,241,397.8203,237,401.8203" style="stroke:#181818;stroke-width:1.0;"/><line style="stroke:#181818;stroke-width:1.0;" x1="237" x2="237" y1="796.0313" y2="816.0313"/><polygon fill="#181818" points="233,806.0313,237,816.0313,241,806.0313,237,810.0313" style="stroke:#181818;stroke-width:1.0;"/><line style="stroke:#181818;stroke-width:1.0;" x1="237" x2="237" y1="313.7266" y2="337.7266"/><polygon fill="#181818" points="233,327.7266,237,337.7266,241,327.7266,237,331.7266" style="stroke:#181818;stroke-width:1.0;"/><line style="stroke:#181818;stroke-width:1.0;" x1="237" x2="237" y1="866.2188" y2="876.2188"/><line style="stroke:#181818;stroke-width:1.0;" x1="237" x2="395" y1="876.2188" y2="876.2188"/><polygon fill="#181818" points="391,617.707,395,607.707,399,617.707,395,613.707" style="stroke:#181818;stroke-width:1.0;"/><line style="stroke:#181818;stroke-width:1.0;" x1="395" x2="395" y1="301.7266" y2="876.2188"/><line style="stroke:#181818;stroke-width:1.0;" x1="395" x2="271.5" y1="301.7266" y2="301.7266"/><polygon fill="#181818" points="281.5,297.7266,271.5,301.7266,281.5,305.7266,277.5,301.7266" style="stroke:#181818;stroke-width:1.0;"/><line style="stroke:#181818;stroke-width:1.0;" x1="202.5" x2="42" y1="301.7266" y2="301.7266"/><polygon fill="#181818" points="38,612.707,42,622.707,46,612.707,42,616.707" style="stroke:#181818;stroke-width:1.0;"/><line style="stroke:#181818;stroke-width:1.0;" x1="42" x2="42" y1="301.7266" y2="906.2188"/><line style="stroke:#181818;stroke-width:1.0;" x1="42" x2="371.5" y1="906.2188" y2="906.2188"/><polygon fill="#181818" points="361.5,902.2188,371.5,906.2188,361.5,910.2188,365.5,906.2188" style="stroke:#181818;stroke-width:1.0;"/><line style="stroke:#181818;stroke-width:1.0;" x1="237" x2="237" y1="254.7266" y2="289.7266"/><polygon fill="#181818" points="233,279.7266,237,289.7266,241,279.7266,237,283.7266" style="stroke:#181818;stroke-width:1.0;"/><line style="stroke:#181818;stroke-width:1.0;" x1="530" x2="530" y1="209.4453" y2="244.4453"/><polygon fill="#181818" points="526,234.4453,530,244.4453,534,234.4453,530,238.4453" style="stroke:#181818;stroke-width:1.0;"/><line style="stroke:#181818;stroke-width:1.0;" x1="530" x2="530" y1="397.6328" y2="432.6328"/><polygon fill="#181818" points="526,422.6328,530,432.6328,534,422.6328,530,426.6328" style="stroke:#181818;stroke-width:1.0;"/><line style="stroke:#181818;stroke-width:1.0;" x1="530" x2="530" y1="338.5391" y2="362.5391"/><polygon fill="#181818" points="526,352.5391,530,362.5391,534,352.5391,530,356.5391" style="stroke:#181818;stroke-width:1.0;"/><line style="stroke:#181818;stroke-width:1.0;" x1="530" x2="530" y1="482.8203" y2="494.8203"/><line style="stroke:#181818;stroke-width:1.0;" x1="530" x2="633" y1="494.8203" y2="494.8203"/><polygon fill="#181818" points="629,420.6797,633,410.6797,637,420.6797,633,416.6797" style="stroke:#181818;stroke-width:1.0;"/><line style="stroke:#181818;stroke-width:1.0;" x1="633" x2="633" y1="326.5391" y2="494.8203"/><line style="stroke:#181818;stroke-width:1.0;" x1="633" x2="579.5" y1="326.5391" y2="326.5391"/><polygon fill="#181818" points="589.5,322.5391,579.5,326.5391,589.5,330.5391,585.5,326.5391" style="stroke:#181818;stroke-width:1.0;"/><line style="stroke:#181818;stroke-width:1.0;" x1="480.5" x2="427" y1="326.5391" y2="326.5391"/><polygon fill="#181818" points="423,625.1133,427,635.1133,431,625.1133,427,629.1133" style="stroke:#181818;stroke-width:1.0;"/><line style="stroke:#181818;stroke-width:1.0;" x1="427" x2="427" y1="326.5391" y2="906.2188"/><line style="stroke:#181818;stroke-width:1.0;" x1="427" x2="395.5" y1="906.2188" y2="906.2188"/><polygon fill="#181818" points="405.5,902.2188,395.5,906.2188,405.5,910.2188,401.5,906.2188" style="stroke:#181818;stroke-width:1.0;"/><line style="stroke:#181818;stroke-width:1.0;" x1="530" x2="530" y1="279.5391" y2="314.5391"/><polygon fill="#181818" points="526,304.5391,530,314.5391,534,304.5391,530,308.5391" style="stroke:#181818;stroke-width:1.0;"/><line style="stroke:#181818;stroke-width:1.0;" x1="340" x2="237" y1="152.3516" y2="152.3516"/><line style="stroke:#181818;stroke-width:1.0;" x1="237" x2="237" y1="152.3516" y2="174.3516"/><polygon fill="#181818" points="233,164.3516,237,174.3516,241,164.3516,237,168.3516" style="stroke:#181818;stroke-width:1.0;"/><line style="stroke:#181818;stroke-width:1.0;" x1="427" x2="530" y1="152.3516" y2="152.3516"/><line style="stroke:#181818;stroke-width:1.0;" x1="530" x2="530" y1="152.3516" y2="174.3516"/><polygon fill="#181818" points="526,164.3516,530,174.3516,534,164.3516,530,168.3516" style="stroke:#181818;stroke-width:1.0;"/><line style="stroke:#181818;stroke-width:1.0;" x1="383.5" x2="383.5" y1="120.3516" y2="140.3516"/><polygon fill="#181818" points="379.5,130.3516,383.5,140.3516,387.5,130.3516,383.5,134.3516" style="stroke:#181818;stroke-width:1.0;"/><line style="stroke:#181818;stroke-width:1.0;" x1="383.5" x2="383.5" y1="918.2188" y2="928.2188"/><line style="stroke:#181818;stroke-width:1.0;" x1="383.5" x2="651" y1="928.2188" y2="928.2188"/><polygon fill="#181818" points="647,546.0195,651,536.0195,655,546.0195,651,542.0195" style="stroke:#181818;stroke-width:1.0;"/><line style="stroke:#181818;stroke-width:1.0;" x1="651" x2="651" y1="108.3516" y2="928.2188"/><line style="stroke:#181818;stroke-width:1.0;" x1="651" x2="472.5" y1="108.3516" y2="108.3516"/><polygon fill="#181818" points="482.5,104.3516,472.5,108.3516,482.5,112.3516,478.5,108.3516" style="stroke:#181818;stroke-width:1.0;"/><line style="stroke:#181818;stroke-width:1.0;" x1="294.5" x2="24" y1="108.3516" y2="108.3516"/><polygon fill="#181818" points="20,532.0195,24,542.0195,28,532.0195,24,536.0195" style="stroke:#181818;stroke-width:1.0;"/><line style="stroke:#181818;stroke-width:1.0;" x1="24" x2="24" y1="108.3516" y2="940.2188"/><line style="stroke:#181818;stroke-width:1.0;" x1="24" x2="383.5" y1="940.2188" y2="940.2188"/><line style="stroke:#181818;stroke-width:1.0;" x1="383.5" x2="383.5" y1="940.2188" y2="960.2188"/><polygon fill="#181818" points="379.5,950.2188,383.5,960.2188,387.5,950.2188,383.5,954.2188" style="stroke:#181818;stroke-width:1.0;"/><line style="stroke:#181818;stroke-width:1.0;" x1="383.5" x2="383.5" y1="76.3516" y2="96.3516"/><polygon fill="#181818" points="379.5,86.3516,383.5,96.3516,387.5,86.3516,383.5,90.3516" style="stroke:#181818;stroke-width:1.0;"/><line style="stroke:#181818;stroke-width:1.0;" x1="383.5" x2="383.5" y1="995.3125" y2="1015.3125"/><polygon fill="#181818" points="379.5,1005.3125,383.5,1015.3125,387.5,1005.3125,383.5,1009.3125" style="stroke:#181818;stroke-width:1.0;"/><!--MD5=[4c07e4f5f77d65b6c5a270bdb98bfc91]
@startuml "Simultanius search on LiteDb-Files"

    note left: Nicht mehr aktuell - zu überarbeiten;
    start
    while (foreach product in list to search) 
        if (last product?) then (yes)
            :j = index of current product
            k = amount of database-files
            runCount = 0
            endCount = 0;
            while (j >= (j - k))
                :search in file[k] after product[j]|
                if (k == 0) then (yes)
                    :runCount += 1
                    j = i
                    k = (amount of database-files) - endCount;
                    if (k == -1) then (yes)
                        stop
                        note left: goto return result-list;
                    endif
                    if (endCount != (j - k)) then (yes)
                        break
                    endif
                endif
                :j -= 1
                k -= 1;
            endwhile
        else (no)
            :j = index of current product;
            :k = amount of database-files;
            while (j >= 0 && k >= 0)
                ' fork
                :search in file[k] after product[j]|
                :j -= 1
                k -= 1;
                ' end fork
            endwhile
        endif
    endwhile
    : return result-list;
    end

@enduml

@startuml "Simultanius search on LiteDb-Files"

    note left: Nicht mehr aktuell - zu überarbeiten;
    start
    while (foreach product in list to search) 
        if (last product?) then (yes)
            :j = index of current product
            k = amount of database-files
            runCount = 0
            endCount = 0;
            while (j >= (j - k))
                :search in file[k] after product[j]|
                if (k == 0) then (yes)
                    :runCount += 1
                    j = i
                    k = (amount of database-files) - endCount;
                    if (k == -1) then (yes)
                        stop
                        note left: goto return result-list;
                    endif
                    if (endCount != (j - k)) then (yes)
                        break
                    endif
                endif
                :j -= 1
                k -= 1;
            endwhile
        else (no)
            :j = index of current product;
            :k = amount of database-files;
            while (j >= 0 && k >= 0)
                :search in file[k] after product[j]|
                :j -= 1
                k -= 1;
            endwhile
        endif
    endwhile
    : return result-list;
    end

@enduml

PlantUML version 1.2022.7(Mon Aug 22 19:01:30 CEST 2022)
(GPL source distribution)
Java Runtime: Java(TM) SE Runtime Environment
JVM: Java HotSpot(TM) 64-Bit Server VM
Default Encoding: UTF-8
Language: de
Country: DE
--></g></svg>